<svg width="152" height="45" xmlns="http://www.w3.org/2000/svg"><g fill="none" fill-rule="evenodd"><rect stroke="#203040" stroke-width="2" x="1" y="1" width="150" height="42.186" rx="7"/><path d="M30.004 14.36c2.866 0 4.698 2.772 4.698 2.772s-2.795 1.517-2.795 4.811c0 3.91 3.511 5.048 3.511 5.048s-2.771 6.577-5.884 6.577c-1.75 0-1.867-1.007-4.192-1.007-2.02 0-2.701 1.007-4.24 1.007-2.936 0-6.73-6.411-6.73-11.625 0-5.415 3.84-7.584 6.248-7.584 2.115 0 2.995 1.245 4.698 1.245 1.433 0 2.56-1.245 4.686-1.245zm-.493-5.523c.423 2.655-1.985 5.937-4.862 5.83-.423-3.377 2.678-5.652 4.862-5.83zm21.724 6.906h1.955l5.195 13.294H56.43l-1.453-4.003h-5.623l-1.49 4.003H46.06l5.176-13.294zm-1.322 7.801h4.506l-2.216-6.2h-.037l-2.253 6.2zm9.57-4.133h1.583v1.303h.037a2.37 2.37 0 0 1 1.229-1.164 4.587 4.587 0 0 1 1.843-.363c.745 0 1.393.137 1.946.41a3.957 3.957 0 0 1 1.377 1.108c.367.465.643 1.002.829 1.61a6.58 6.58 0 0 1 .28 1.937 6.79 6.79 0 0 1-.27 1.936 4.559 4.559 0 0 1-.82 1.592c-.366.453-.825.81-1.378 1.07-.552.261-1.194.391-1.927.391a4.757 4.757 0 0 1-1.657-.316 3.383 3.383 0 0 1-.81-.456 2.55 2.55 0 0 1-.642-.717h-.037v4.953h-1.583V19.41zm7.448 4.729c0-.447-.06-.885-.177-1.313a3.543 3.543 0 0 0-.54-1.145 2.646 2.646 0 0 0-.931-.8c-.379-.199-.823-.298-1.331-.298-.534 0-.987.105-1.36.316a2.724 2.724 0 0 0-.912.829c-.236.341-.406.729-.512 1.163a5.582 5.582 0 0 0-.158 1.322c0 .472.056.928.167 1.369.112.44.289.828.531 1.164.242.335.555.605.94.81.385.204.85.307 1.397.307.546 0 1.002-.106 1.368-.317.366-.21.661-.49.885-.838.223-.347.384-.744.484-1.191.099-.447.149-.906.149-1.378zm3.593-4.73h1.583v1.304h.037a2.37 2.37 0 0 1 1.229-1.164 4.587 4.587 0 0 1 1.843-.363c.745 0 1.393.137 1.946.41a3.957 3.957 0 0 1 1.377 1.108c.367.465.643 1.002.829 1.61a6.58 6.58 0 0 1 .28 1.937 6.79 6.79 0 0 1-.27 1.936 4.559 4.559 0 0 1-.82 1.592c-.366.453-.825.81-1.378 1.07-.552.261-1.194.391-1.927.391a4.757 4.757 0 0 1-1.657-.316 3.383 3.383 0 0 1-.81-.456 2.55 2.55 0 0 1-.642-.717h-.037v4.953h-1.583V19.41zm7.448 4.73c0-.447-.06-.885-.177-1.313a3.543 3.543 0 0 0-.54-1.145 2.646 2.646 0 0 0-.931-.8c-.379-.199-.823-.298-1.331-.298-.534 0-.987.105-1.36.316a2.724 2.724 0 0 0-.912.829c-.236.341-.406.729-.512 1.163a5.582 5.582 0 0 0-.158 1.322c0 .472.056.928.167 1.369.112.44.289.828.531 1.164.242.335.555.605.94.81.385.204.85.307 1.397.307.546 0 1.002-.106 1.368-.317.366-.21.661-.49.885-.838.223-.347.384-.744.484-1.191.099-.447.149-.906.149-1.378zm16.664-4.506c-.1-.956-.444-1.648-1.034-2.076-.59-.428-1.343-.642-2.262-.642-.372 0-.739.037-1.099.111-.36.075-.68.2-.958.373-.28.174-.503.406-.67.698-.168.292-.252.655-.252 1.09 0 .409.121.74.363.995s.565.463.968.624c.404.161.86.295 1.369.4.509.106 1.027.22 1.554.345.528.124 1.046.27 1.555.437.509.168.965.394 1.369.68.403.285.726.645.968 1.08.242.434.363.98.363 1.638 0 .708-.158 1.313-.475 1.816a3.908 3.908 0 0 1-1.22 1.229 5.307 5.307 0 0 1-1.666.688 8.082 8.082 0 0 1-3.947-.065 5.219 5.219 0 0 1-1.75-.847 4.016 4.016 0 0 1-1.192-1.452c-.292-.59-.437-1.288-.437-2.095h1.675c0 .559.109 1.04.326 1.443.217.404.503.736.857.996.353.261.766.453 1.238.577.471.125.955.187 1.452.187.397 0 .797-.038 1.2-.112a3.538 3.538 0 0 0 1.09-.382c.323-.18.583-.425.782-.735.199-.31.298-.708.298-1.192 0-.46-.121-.831-.363-1.117a2.668 2.668 0 0 0-.968-.698 7.088 7.088 0 0 0-1.369-.438 415.95 415.95 0 0 1-1.554-.344 21.15 21.15 0 0 1-1.555-.41 5.627 5.627 0 0 1-1.369-.614 2.943 2.943 0 0 1-.968-.987c-.242-.403-.363-.91-.363-1.517 0-.67.137-1.251.41-1.741.273-.49.636-.894 1.089-1.21a4.889 4.889 0 0 1 1.545-.708 6.82 6.82 0 0 1 1.778-.233c.683 0 1.316.08 1.9.242a4.3 4.3 0 0 1 1.536.764c.44.347.788.785 1.042 1.312.255.528.394 1.158.42 1.89h-1.676zm6.311-.223h1.918v1.396h-1.918v5.977c0 .186.016.335.047.447a.46.46 0 0 0 .177.26.782.782 0 0 0 .363.121c.155.019.357.028.605.028h.726v1.397h-1.21c-.41 0-.76-.028-1.052-.084a1.545 1.545 0 0 1-.708-.307 1.313 1.313 0 0 1-.4-.633c-.087-.273-.13-.633-.13-1.08v-6.126h-1.639v-1.396h1.639v-2.886h1.582v2.886zm3.147 4.822c0-.708.1-1.369.298-1.983a4.493 4.493 0 0 1 .894-1.601 4.21 4.21 0 0 1 1.47-1.07c.584-.261 1.254-.392 2.011-.392.77 0 1.443.13 2.02.391.578.26 1.065.618 1.462 1.07.397.454.695.988.894 1.602.198.614.298 1.275.298 1.983 0 .707-.1 1.365-.298 1.974a4.505 4.505 0 0 1-.894 1.591 4.13 4.13 0 0 1-1.462 1.062c-.577.254-1.25.381-2.02.381-.757 0-1.427-.127-2.01-.381a4.111 4.111 0 0 1-1.471-1.062 4.505 4.505 0 0 1-.894-1.591 6.323 6.323 0 0 1-.298-1.974zm1.676 0c0 .583.077 1.102.232 1.555.156.453.37.831.643 1.135.273.305.592.537.959.699.366.161.754.242 1.163.242.41 0 .798-.081 1.164-.242.366-.162.686-.394.959-.699.273-.304.487-.682.642-1.135.155-.453.233-.972.233-1.555s-.078-1.102-.233-1.555a3.355 3.355 0 0 0-.642-1.145 2.735 2.735 0 0 0-.959-.707 2.854 2.854 0 0 0-1.164-.242c-.41 0-.797.08-1.163.242a2.735 2.735 0 0 0-.96.707c-.272.31-.486.692-.642 1.145-.155.453-.232.972-.232 1.555zm9.477-4.822h1.49v2.03h.036c.385-.783.857-1.36 1.415-1.732.559-.373 1.267-.547 2.123-.522v1.676c-.633 0-1.173.087-1.62.26a2.554 2.554 0 0 0-1.08.764 3.158 3.158 0 0 0-.596 1.22 6.581 6.581 0 0 0-.186 1.647v4.283h-1.582V19.41zm14.131 6.572c-.21 1.08-.676 1.893-1.396 2.44-.72.545-1.626.818-2.718.818-.77 0-1.437-.124-2.002-.372a3.946 3.946 0 0 1-1.424-1.043 4.43 4.43 0 0 1-.866-1.6 7.716 7.716 0 0 1-.326-2.03c0-.733.112-1.403.335-2.011a4.806 4.806 0 0 1 .94-1.583 4.266 4.266 0 0 1 1.434-1.042 4.377 4.377 0 0 1 1.816-.373c.856 0 1.567.177 2.131.53a4.216 4.216 0 0 1 1.36 1.35c.34.547.577 1.143.707 1.788.13.646.183 1.26.158 1.843h-7.205a3.82 3.82 0 0 0 .149 1.201c.111.379.291.714.54 1.006.248.291.565.524.95.698.384.174.837.26 1.358.26.67 0 1.22-.154 1.648-.465.428-.31.71-.782.847-1.415h1.564zm-1.526-2.681a3.238 3.238 0 0 0-.252-1.061 2.713 2.713 0 0 0-.577-.866 2.707 2.707 0 0 0-1.946-.791c-.41 0-.778.071-1.107.214a2.558 2.558 0 0 0-.848.586 2.806 2.806 0 0 0-.558.866c-.137.329-.217.68-.242 1.052h5.53z" fill="#203040"/></g></svg>