<svg width="152" height="45" xmlns="http://www.w3.org/2000/svg"><g fill="none" fill-rule="evenodd"><rect stroke="#203040" stroke-width="2" x="1" y="1" width="150" height="42.186" rx="8"/><path d="M100.667 26.449l-1.014.968c-.234.13-.467.281-.7.389-.704.323-1.42.405-2.057.405-.677 0-1.739-.045-2.822-.837-1.504-1.073-2.162-2.916-2.162-4.522 0-3.326 2.676-4.957 4.858-4.957.763 0 1.546.194 2.183.601 1.06.709 1.333 1.63 1.485 2.123l-4.983 2.037-1.632.128c.528 2.727 2.35 4.313 4.366 4.313 1.006 0 1.753-.332 2.438-.675 0 0 .138-.072.04.027zm-3.007-5.424l-3.859 1.695c-.021-.386-.064-.77-.064-1.132 0-2.318 1.59-2.985 2.437-2.985 1.143 0 2.101.99 2.101 1.846 0 .299-.21.427-.615.576zm-7.413 5.258c0 .833.147.963.843 1.028.364.044.725.063 1.083.106l-.784.472h-3.736c.49-.643.575-.707.575-1.136v-.478l-.009-12.753h-1.65l1.589-.774h3.032c-.657.385-.854.62-.938 1.37l-.005 12.165zm-5.794-7.335c.487.405 1.502 1.264 1.502 2.894 0 1.588-.885 2.337-1.777 3.046-.274.279-.595.581-.595 1.05 0 .474.32.731.551.923l.766.598c.931.796 1.78 1.525 1.78 3.006 0 2.017-1.93 4.052-5.577 4.052-3.072 0-4.557-1.48-4.557-3.068 0-.772.38-1.866 1.634-2.615 1.314-.813 3.095-.922 4.048-.986-.298-.389-.637-.796-.637-1.46 0-.364.108-.581.212-.837-.232.023-.466.045-.678.045-2.248 0-3.52-1.697-3.52-3.369 0-.986.446-2.08 1.359-2.874 1.209-1.007 2.65-1.18 3.795-1.18h4.369l-1.359.775h-1.316zM82.95 28.47c-.174-.023-.279-.023-.488-.023-.193 0-1.338.042-2.225.343-.47.174-1.826.687-1.826 2.21 0 1.52 1.465 2.617 3.73 2.617 2.036 0 3.116-.987 3.116-2.316 0-1.094-.7-1.671-2.307-2.831zm.609-4.076c-.335.34-.907.601-1.439.601-1.82 0-2.649-2.382-2.649-3.819 0-.557.108-1.137.466-1.584.338-.431.934-.71 1.484-.71 1.762 0 2.67 2.402 2.67 3.945 0 .388-.042 1.072-.532 1.567zm-12.25 3.772c-3.37 0-5.174-2.655-5.174-5.059 0-2.808 2.267-5.212 5.491-5.212 3.117 0 5.069 2.47 5.069 5.061 0 2.532-1.93 5.21-5.387 5.21zm2.65-1.735c-.488.685-1.334 1.091-2.163 1.091-2.57 0-3.605-3.495-3.605-5.614 0-.925.148-1.869.976-2.62a2.937 2.937 0 0 1 1.91-.727c2.63 0 3.52 3.602 3.52 5.492 0 .835-.125 1.692-.638 2.378zm-13.933 1.735c-3.37 0-5.17-2.655-5.17-5.059 0-2.808 2.267-5.212 5.49-5.212 3.115 0 5.065 2.47 5.065 5.061 0 2.532-1.927 5.21-5.385 5.21zm2.652-1.735c-.49.685-1.335 1.091-2.162 1.091-2.565 0-3.605-3.495-3.605-5.614 0-.925.147-1.869.977-2.62a2.924 2.924 0 0 1 1.907-.727c2.626 0 3.519 3.602 3.519 5.492 0 .835-.127 1.692-.636 2.378zm-9.17.99l-2.842.66c-1.151.183-2.185.345-3.28.345-5.482 0-7.57-4.083-7.57-7.278 0-3.902 2.959-7.52 8.027-7.52 1.073 0 2.104.16 3.044.419 1.49.423 2.186.945 2.621 1.25l-1.65 1.587-.697.158.497-.8c-.673-.665-1.908-1.89-4.253-1.89-3.136 0-5.501 2.41-5.501 5.931 0 3.782 2.7 7.338 7.032 7.338 1.273 0 1.928-.258 2.523-.5V23.88l-3 .163 1.59-.864h4.211l-.515.501c-.139.12-.157.16-.196.32-.021.183-.04.766-.04.97v2.452zm53.269-.88v5.462h-1.073V18.102h1.073v1.583c.698-1.023 1.975-1.834 3.457-1.834 2.66 0 4.45 2.04 4.45 5.272 0 3.209-1.79 5.292-4.45 5.292-1.4 0-2.653-.73-3.457-1.875zm6.755-3.418c0 2.438-1.254 4.312-3.479 4.312-1.381 0-2.702-1.139-3.276-2.099v-4.45c.574-.957 1.895-2.056 3.276-2.056 2.225 0 3.48 1.858 3.48 4.293zm2.617-8.86h1.072v13.902h-1.072V14.263zm13.104 16.842c.23.103.621.167.87.167.655 0 1.112-.272 1.522-1.23l.782-1.793-4.224-10.147h1.196l3.624 8.793 3.588-8.793h1.213l-5.152 12.276c-.534 1.265-1.376 1.873-2.53 1.873-.348 0-.805-.062-1.073-.145l.184-1.001zm-3.132-2.97a18.879 18.879 0 0 1-.165-.913 6.197 6.197 0 0 1-.052-.785c-.367.546-.888 1-1.553 1.359-.666.36-1.299.537-2.166.537-1.045 0-1.856-.26-2.435-.788-.576-.527-.867-1.24-.867-2.144 0-.902.42-1.634 1.259-2.194.838-.562 1.92-.842 3.261-.842h2.501v-1.25c0-.72-.242-1.287-.726-1.697-.487-.412-1.169-.62-2.053-.62-.809 0-1.465.19-1.964.56-.495.378-.745.846-.745 1.41h-1.097l-.023-.054c-.04-.76.304-1.427 1.035-2.003.727-.575 1.68-.865 2.853-.865 1.17 0 2.115.285 2.828.853.713.563 1.07 1.376 1.07 2.439v4.964c0 .356.017.7.061 1.036.045.337.118.672.214.997h-1.236zm-3.805-.79c.91 0 1.566-.207 2.235-.614.664-.405 1.117-.933 1.353-1.573v-1.932h-2.512c-.96 0-1.755.215-2.38.649-.626.432-.944.955-.944 1.563 0 .574.201 1.033.6 1.38.402.352.95.526 1.648.526zM13.826 31.96c-.346-.093-.57-.436-.57-.966V13.492c0-.492.19-.823.492-.943l8.6 9.754-8.522 9.657zm1.184-.372l10.353-5.867-2.522-2.86-7.831 8.727zm10.424-12.781L15.225 13.02l7.63 8.708 2.579-2.921zm.692.393l4 2.267c.757.429.764 1.12 0 1.554l-4.1 2.324-2.675-3.052 2.775-3.093z" fill="#203040"/></g></svg>