<svg width="55" height="51" xmlns="http://www.w3.org/2000/svg"><g fill-rule="nonzero" fill="none"><path fill="#161616" d="M32.955 40.621L32.417 39l-3.427 1.28h-2.83L22.733 39l-.538 1.621.353 1.71-.236.176.337.257-.257.202.337.308-.206.147.487.577-.727 2.27v.008l.685 2.353 2.393-.656.454.37.946.657h1.628l.946-.657.454-.37 2.376.652.017.004.69-2.349v-.004l-.732-2.278.487-.577-.206-.147.337-.308-.257-.202.337-.257-.232-.176.35-1.706z"/><g fill="#763D16"><path d="M23.69 15.514c0-.021 0-.021-.02-.043 0 0 0-.021-.022-.021L3.06.15S3.04.15 3.04.129h-.043c-.021 0-.021 0-.043.021 0 .021-.021.021-.021.043L.192 8.314v.065l1.798 8.678-1.091.814c-.022.022-.043.043-.043.086s.021.064.043.086l1.605 1.221-1.199.943c-.021.022-.042.043-.042.086 0 .021.021.064.042.086l1.606 1.478-.964.686c-.02.021-.042.043-.042.064 0 .022 0 .064.021.086l2.461 2.893.022.021H4.516l11.192-3.278h.022s.021 0 .021-.022l7.918-6.707.022-.021.021-.022v-.021c-.021.021-.021 0-.021-.022 0 .022 0 0 0 0zM54.957 8.379v-.043-.022L52.261.193c0-.022-.022-.022-.022-.043-.021 0-.021-.021-.043-.021h-.042s-.022 0-.022.021l-20.587 15.3s0 .021-.022.021c0 .022-.021.022-.021.043v.065l.021.021s0 .021.022.021l7.918 6.708s.021 0 .021.021h.022l11.192 3.279H50.805l.022-.022 2.46-2.893c.022-.021.022-.043.022-.085 0-.043-.021-.065-.042-.065l-.963-.685 1.605-1.479c.021-.021.042-.043.042-.086a.163.163 0 0 0-.042-.085l-1.199-.943 1.605-1.222c.022-.021.043-.043.043-.085 0-.043-.021-.065-.043-.086l-1.07-.814 1.712-8.7z"/></g><g fill="#D7C1B3"><path d="M23.648 42.021c-.022-.021-.064-.021-.107 0l-7.255 3.536c-.021 0-.021.022-.043.043v.064c0 .043.022.065.064.086l6.742 3.193h.042c.022 0 .043 0 .065-.022a.163.163 0 0 0 .042-.085l-.042-1.993.556-4.736c-.021-.021-.043-.064-.064-.086zM38.928 45.664v-.043-.021c0-.021-.021-.021-.043-.043l-7.255-3.536c-.042-.021-.085-.021-.107 0a.164.164 0 0 0-.042.108l.577 4.735-.064 1.993c0 .043.022.064.043.086.021.021.043.021.064.021h.043l6.741-3.193c.022 0 .022-.021.022-.021 0-.043.021-.064.021-.086z"/></g><g fill="#E4761B"><path d="M54.53 37.114s0-.021 0 0c-.022-.021-.022-.043-.044-.064-.021-.021-.042-.021-.042-.021h-9.93c-.043 0-.065.021-.086.042l-5.5 8.272-.963-8.143c0-.043-.021-.064-.064-.086-.043-.021-.086 0-.107.022l-6.25 4.885a.163.163 0 0 0-.042.086c0 .043.021.064.064.086l7.255 3.536h.021l12.135 3.342h.021c.043 0 .086-.021.107-.085l3.467-11.85c-.043 0-.043 0-.043-.022zM24.418 27.9l-.727-12.364v-.022-.021l-3.232-8.807-.064-.065L3.039.13A.103.103 0 0 0 2.91.17c-.022.043-.022.108.02.129l20.481 15.214-7.81 6.622-.022.021-3.382 5.143c-.021.021-.021.064 0 .107.022.043.043.064.086.064l12.027.536c.022 0 .043 0 .064-.021l.022-.022s.021-.021.021-.043V27.9zM42.951 27.407c.022-.043.022-.086 0-.107l-3.381-5.121-.021-.022-7.919-6.707c-.021-.021-.064-.043-.107-.021-.042.021-.064.042-.064.085l-.727 12.365v.042c0 .022.02.022.02.043 0 0 0 .022.022.022s.043.021.065.021l12.027-.536c.043 0 .085-.021.085-.064zM17.399 37.136c-.022-.022-.064-.022-.107-.022-.043.022-.064.043-.064.086l-.963 8.143-5.5-8.272c-.022-.021-.043-.042-.086-.042H.749c-.021 0-.043 0-.043.021-.021.021-.021.021-.021.043v.043l3.445 11.85c.022.043.065.085.107.085h.022l12.134-3.342h.021l7.255-3.536c.043-.022.064-.043.064-.086s-.02-.064-.042-.086l-6.292-4.885z"/></g><g fill="#233447"><path d="M21.53 30.321c-.022-.042-.086-.085-.15-.042l-4.26 1.95a.118.118 0 0 0-.064.107c0 .043.043.085.086.085l6.035 1.779h.021a.162.162 0 0 0 .086-.043c.021-.043.043-.086.021-.107l-1.776-3.729zM38.05 32.207l-4.28-1.95c-.042-.021-.107 0-.15.043l-1.776 3.729c-.021.042-.021.085.022.107.021.021.043.043.085.043h.022l6.056-1.779a.167.167 0 0 0 .086-.086.118.118 0 0 0-.064-.107z"/></g><g fill="#CD6116"><path d="M17.335 37.114l-6.656-.085c-.043 0-.086.021-.086.064-.021.043-.021.086 0 .107l5.65 8.507a.162.162 0 0 0 .086.043h.021a.092.092 0 0 0 .086-.086l1.006-8.421c0-.022 0-.064-.022-.086a.162.162 0 0 0-.085-.043zM44.578 37.093c-.022-.043-.064-.064-.086-.064l-6.677.085a.162.162 0 0 0-.085.043c-.022.022-.022.043-.022.086l1.006 8.421c0 .043.043.086.086.086h.021c.043 0 .064-.021.086-.043l5.67-8.507c.022-.043.022-.086 0-.107zM24.418 27.879s0-.022 0 0c0-.022 0-.022-.021-.022v-.021l-.022-.022c-.02 0-.02 0-.042-.021l-12.028-.536a.118.118 0 0 0-.107.064c-.021.043 0 .086.022.129l4.88 4.95H17.141c.021 0 .021.021.043.021h.043l4.173-1.907 1.733 3.643a.118.118 0 0 0 .107.064h.022a.092.092 0 0 0 .085-.085l1.113-6.193c-.043-.043-.043-.064-.043-.064zM37.965 32.421h.043c.021 0 .043 0 .043-.021h.042l4.858-4.95c.022-.021.043-.086.022-.129-.022-.042-.043-.064-.107-.064l-12.027.536c-.022 0-.022 0-.043.021 0 0-.022 0-.022.022v.107l1.113 6.193c0 .043.043.085.086.085h.021a.118.118 0 0 0 .107-.064l1.734-3.643 4.13 1.907z"/></g><g fill="#E2761B"><path d="M52.24.193a.103.103 0 0 0-.13-.043L34.756 6.643l-.064.064-3.232 8.786c-.021.043 0 .086.043.128.021.022.043.022.064.022.022 0 .043 0 .064-.022L52.218.321c.043-.021.064-.085.021-.128zM30.946 27.879c0-.043-.065-.086-.107-.086-.065 0-.107.043-.107.107l-.279 3.9c0 .021 0 .043.022.064l1.39 2.293c.022.043.065.043.086.043h.043c.043-.021.086-.064.064-.129l-1.112-6.192z"/></g><g fill="#E4751F"><path d="M17.249 32.229l-4.88-4.95c-.042-.043-.106-.043-.128-.022-.043.022-.064.086-.043.129l5.051 9.857c.021.043.064.064.086.064h.021c.043-.021.086-.064.086-.107l-.172-4.907s-.021-.043-.021-.064zM42.93 27.279c-.043-.022-.107-.022-.128.021l-4.858 4.95c-.022.021-.022.043-.022.064l-.192 4.907c0 .043.021.086.085.108h.022c.042 0 .085-.022.085-.065l5.05-9.857a.103.103 0 0 0-.042-.128zM30.646 31.736c-.021-.043-.064-.065-.128-.043-.043.021-.086.064-.086.107l-.021 9.6c0 .064.042.107.107.107.042 0 .085-.043.107-.086l1.412-7.307c0-.021 0-.043-.021-.085l-1.37-2.293zM24.696 31.8l-.278-3.9c0-.064-.043-.107-.107-.107s-.107.043-.107.086l-1.113 6.192v.043l1.413 7.307c0 .043.064.086.107.086.064 0 .107-.043.107-.107l-.022-9.6z"/></g><path d="M54.53 37.157v-.043L50.783 25.5c0-.021 0-.021-.021-.021l-.022-.022h-.021-.022L39.506 22.18c-.043-.022-.086 0-.107.042a.137.137 0 0 0 0 .129l3.338 5.079-4.793 9.364.17-4.414c0-.043-.02-.065-.042-.086-.021-.022-.064-.022-.086-.022L31.93 34.05h-.021l-.022.021s0 .022-.021.022l-1.199 6.193.022-8.465.278-3.9.728-12.342 3.231-8.786c.021-.043 0-.064-.021-.107-.022-.043-.043-.043-.086-.043H20.374c-.022 0-.043 0-.065.021-.021.022-.021.022-.021.043v.064l3.231 8.786.728 12.343.278 3.9.022 8.464-1.199-6.193c0-.021 0-.021-.021-.021l-.022-.021h-.021l-6.035-1.779c-.043 0-.064 0-.086.021a.163.163 0 0 0-.042.086l.15 4.436-4.859-9.429 3.339-5.078a.137.137 0 0 0 0-.129c-.021-.043-.064-.043-.107-.043L4.451 25.393H4.43h-.021s-.022 0-.022.021l-.021.022L.642 37.093v.064c0 .022.021.043.043.043.021.021.043.021.064.021h9.93l6.613.086 6.227 4.864c.022 0 .022.022.043.022.022 0 .043 0 .043-.022l1.006-.685h5.864l1.006.685c.02 0 .042.022.042.022.022 0 .043 0 .043-.022l6.228-4.864 6.634-.086h9.93c.021 0 .043 0 .064-.021.086.021.086 0 .107-.043 0 .022 0 .022 0 0z" fill="#F6851B"/><path d="M38.907 45.579c-.022-.043-.086-.065-.129-.043l-6.591 3.128.064-1.821V46.8c0-.021-.021-.021-.021-.043l-.557-.471h-.021-8.112-.02-.022c-.021 0-.043.021-.043.021l-.513.472c-.022.021-.022.021-.022.042v.043l.043 1.822-6.591-3.129a.103.103 0 0 0-.129.043.132.132 0 0 0 .022.15l2.354 1.929L23.412 51H31.716l4.794-3.321 2.354-1.929c.064-.064.085-.129.043-.171z" fill="#C0AD9E"/></g></svg>