<svg xmlns="http://www.w3.org/2000/svg" xmlns:xlink="http://www.w3.org/1999/xlink" width="304" height="517"><defs><path id="b" d="M72 0h178.763c14.912 0 27 12.088 27 27v419c0 14.912-12.088 27-27 27H72c-14.912 0-27-12.088-27-27V27C45 12.088 57.088 0 72 0z"/><filter id="a" width="120.6%" height="110.1%" x="-10.3%" y="-5.1%" filterUnits="objectBoundingBox"><feOffset in="SourceAlpha" result="shadowOffsetOuter1"/><feGaussianBlur in="shadowOffsetOuter1" result="shadowBlurOuter1" stdDeviation="8"/><feColorMatrix in="shadowBlurOuter1" values="0 0 0 0 0.105882353 0 0 0 0 0.266666667 0 0 0 0 0.474509804 0 0 0 0.15 0"/></filter><linearGradient id="c" x1="0%" x2="100.01%" y1="49.995%" y2="49.995%"><stop offset="0%" stop-color="#00E8CC"/><stop offset="95%" stop-color="#00E8CC"/></linearGradient><linearGradient id="d" x1="21208%" x2="26123%" y1="6303%" y2="6303%"><stop offset="0%" stop-color="#00E8CC"/><stop offset="95%" stop-color="#00E8CC"/></linearGradient><linearGradient id="e" x1="22730%" x2="26123%" y1="45931%" y2="45931%"><stop offset="0%" stop-color="#00E8CC"/><stop offset="95%" stop-color="#00E8CC"/></linearGradient><path id="g" d="M25.102 419h21.796c7.228 0 10.841 0 14.732 1.23a15.292 15.292 0 0 1 9.14 9.14C72 433.26 72 436.875 72 444.102v21.796c0 7.228 0 10.841-1.23 14.732a15.29 15.29 0 0 1-9.14 9.14C57.74 491 54.126 491 46.898 491H25.102c-7.228 0-10.842 0-14.732-1.23a15.29 15.29 0 0 1-9.14-9.14C0 476.74 0 473.126 0 465.898v-21.796c0-7.227 0-10.842 1.23-14.732a15.292 15.292 0 0 1 9.14-9.14C14.26 419 17.874 419 25.102 419"/><filter id="f" width="141.7%" height="141.7%" x="-20.8%" y="-20.8%" filterUnits="objectBoundingBox"><feOffset in="SourceAlpha" result="shadowOffsetOuter1"/><feGaussianBlur in="shadowOffsetOuter1" result="shadowBlurOuter1" stdDeviation="5"/><feColorMatrix in="shadowBlurOuter1" values="0 0 0 0 0.305882353 0 0 0 0 0.352941176 0 0 0 0 0.4 0 0 0 0.4 0"/></filter><linearGradient id="h" x1="21208%" x2="25877.25%" y1="6303%" y2="6303%"><stop offset="0%" stop-color="#FFF"/><stop offset="100%" stop-color="#00E8CC"/></linearGradient></defs><g fill="none" fill-rule="evenodd" transform="translate(10 16)"><use fill="#000" filter="url(#a)" xlink:href="#b"/><use fill="#001833" xlink:href="#b"/><path fill="#6948A1" d="M62 57h197.55a3 3 0 0 1 3 3v355.817a3 3 0 0 1-3 3H62a3 3 0 0 1-3-3V60a3 3 0 0 1 3-3z"/><g fill-rule="nonzero"><path fill="#311B58" d="M158.995 218.87c0-.753-.535-1.06-1.188-.68 0 0-2.518 1.464-4.422 2.363-2.287 1.083-5.885 2.036-8.162 2.476-1.48.286-1.692 1.228-1.764 2.104a90.404 90.404 0 0 0-.225 4.278c-.107 3.46-.417 7.074-.043 10.52.225 2.07.796 4.403 1.769 6.262a26.722 26.722 0 0 0 5.52 7.245c2.261 2.09 7.268 4.416 7.268 4.416.686.318 1.248-.037 1.248-.791V218.87z"/><path fill="#00E8CC" d="M153.347 222.645c-3.28 1.287-7.996 2.366-7.996 2.366-.136 1.733-.273 3.474-.326 5.214-.096 3.084-.372 6.306-.039 9.377.201 1.845.708 3.925 1.574 5.58 1.263 2.412 2.91 4.827 4.922 6.685 2.01 1.857 4.552 3.072 7.022 4.218l.489.225v-36.333a49.103 49.103 0 0 1-5.646 2.668z"/><path fill="#311B58" d="M163.008 257.06c0 .754.56 1.11 1.246.789 0 0 4.985-2.324 7.246-4.414a26.721 26.721 0 0 0 5.521-7.245c.973-1.857 1.544-4.19 1.769-6.262.374-3.444.064-7.06-.044-10.52a89.42 89.42 0 0 0-.224-4.278c-.072-.876-.285-1.819-1.764-2.104-2.276-.44-5.875-1.394-8.162-2.476-1.889-.894-4.399-2.348-4.399-2.348-.654-.38-1.19-.074-1.19.68v38.179z"/><path fill="#50239F" d="M163.48 256.085c2.468-1.146 5.006-2.356 7.021-4.218 2.015-1.862 3.659-4.273 4.922-6.684.865-1.656 1.376-3.736 1.573-5.58.334-3.072.057-6.294-.039-9.378-.054-1.74-.19-3.48-.326-5.214 0 0-4.716-1.08-7.995-2.366a49.065 49.065 0 0 1-5.63-2.661V256.3l.474-.216z"/><path fill="url(#c)" d="M12.886 14.236h8.11v8.616h-8.11z" transform="translate(143 218)"/><path fill="#00E8CC" d="M166.864 229.134h-15.53c-1.193-.023-2.147-1.016-2.147-2.232 0-1.216.954-2.209 2.147-2.231h15.53c1.193.022 2.148 1.015 2.148 2.231s-.955 2.209-2.148 2.232zm-.72 14.347h-14.81c-1.287 0-2.33-1.063-2.33-2.376 0-1.312 1.043-2.375 2.33-2.375h14.81c1.286 0 2.329 1.063 2.329 2.375 0 1.313-1.043 2.376-2.33 2.376z"/><path fill="#50239F" d="M166.864 247.948h-9.926c-1.193-.023-2.148-1.016-2.148-2.232 0-1.216.955-2.209 2.148-2.231h9.926c1.193.022 2.148 1.015 2.148 2.231s-.955 2.209-2.148 2.232z"/><path fill="url(#d)" d="M10.231 2.171V.003l-1.178.07v3.87h3.8v-.269h-1.148c-.814 0-1.474-.673-1.474-1.503z" transform="translate(149 221)"/><path fill="url(#e)" d="M10.231 33.888v.267-1.991l2.623-.049v.27h-1.149c-.39 0-.766.158-1.042.44a1.518 1.518 0 0 0-.432 1.063z" transform="translate(149 221)"/><path fill="#50239F" d="M164.594 235.727h-7.56c-1.77-.028-3.188-1.498-3.188-3.302s1.419-3.274 3.187-3.302h7.56c1.77.028 3.189 1.498 3.189 3.302s-1.42 3.274-3.188 3.302z"/><path fill="#00E8CC" d="M164.273 253.38h-6.65c-1.474 0-2.668-1.218-2.668-2.72 0-1.504 1.194-2.722 2.668-2.722h6.65c1.474 0 2.668 1.218 2.668 2.721 0 1.503-1.194 2.721-2.668 2.721z"/><path fill="#50239F" d="M170.957 238.73h-9.927c-.909-.02-1.635-.777-1.635-1.704 0-.927.726-1.684 1.635-1.704h9.927a1.664 1.664 0 0 1 1.477.84 1.734 1.734 0 0 1 0 1.726 1.664 1.664 0 0 1-1.477.842z"/></g><ellipse cx="160.439" cy="444.733" fill="#001833" stroke="#4E5A66" stroke-width="2" rx="18.376" ry="17.902"/><use fill="#000" filter="url(#f)" xlink:href="#g"/><use fill="#FFF" xlink:href="#g"/><path fill="#311B58" fill-rule="nonzero" d="M33.995 435.87c0-.753-.535-1.06-1.188-.68 0 0-2.518 1.464-4.422 2.363-2.287 1.083-5.885 2.036-8.162 2.476-1.48.286-1.692 1.228-1.764 2.104a90.404 90.404 0 0 0-.225 4.278c-.107 3.46-.417 7.074-.043 10.52.225 2.07.796 4.403 1.769 6.262a26.722 26.722 0 0 0 5.52 7.245c2.261 2.09 7.268 4.416 7.268 4.416.686.318 1.248-.037 1.248-.791V435.87z"/><path fill="#FFF" fill-rule="nonzero" d="M28.347 439.645c-3.28 1.287-7.996 2.366-7.996 2.366-.136 1.733-.273 3.474-.326 5.214-.096 3.084-.372 6.306-.039 9.377.201 1.845.708 3.925 1.574 5.58 1.263 2.412 2.91 4.827 4.922 6.685 2.01 1.857 4.552 3.072 7.022 4.218l.489.225v-36.333a49.103 49.103 0 0 1-5.646 2.668z"/><path fill="#311B58" fill-rule="nonzero" d="M38.008 474.06c0 .754.56 1.11 1.246.789 0 0 4.985-2.324 7.246-4.414a26.721 26.721 0 0 0 5.521-7.245c.973-1.857 1.544-4.19 1.769-6.262.374-3.444.064-7.06-.044-10.52a89.42 89.42 0 0 0-.224-4.278c-.072-.876-.285-1.819-1.764-2.104-2.276-.44-5.875-1.394-8.162-2.476-1.889-.894-4.399-2.348-4.399-2.348-.654-.38-1.19-.074-1.19.68v38.179z"/><path fill="#50239F" fill-rule="nonzero" d="M38.48 473.085c2.468-1.146 5.006-2.356 7.021-4.218 2.015-1.862 3.659-4.273 4.922-6.684.865-1.656 1.376-3.736 1.573-5.58.334-3.072.057-6.294-.039-9.378-.054-1.74-.19-3.48-.326-5.214 0 0-4.716-1.08-7.995-2.366a49.066 49.066 0 0 1-5.63-2.661V473.3l.474-.216z"/><path fill="#FFF" fill-rule="nonzero" d="M30.886 449.236h8.11v8.616h-8.11z"/><path fill="#FFF" fill-rule="nonzero" d="M41.864 446.134h-15.53c-1.193-.023-2.147-1.016-2.147-2.232 0-1.216.954-2.209 2.147-2.231h15.53c1.193.022 2.148 1.015 2.148 2.231s-.955 2.209-2.148 2.232zm-.72 14.347h-14.81c-1.287 0-2.33-1.063-2.33-2.376 0-1.312 1.043-2.375 2.33-2.375h14.81c1.286 0 2.329 1.063 2.329 2.375 0 1.313-1.043 2.376-2.33 2.376z"/><path fill="#50239F" fill-rule="nonzero" d="M41.864 464.948h-9.926c-1.193-.023-2.148-1.016-2.148-2.232 0-1.216.955-2.209 2.148-2.231h9.926c1.193.022 2.148 1.015 2.148 2.231s-.955 2.209-2.148 2.232z"/><path fill="url(#h)" fill-rule="nonzero" d="M34.231 440.171v-2.168l-1.178.07v3.87h3.8v-.269h-1.148c-.814 0-1.474-.673-1.474-1.503z"/><path fill="#FFF" fill-rule="nonzero" d="M34.231 471.888v.267-1.991l2.623-.049v.27h-1.149c-.39 0-.766.158-1.042.44a1.518 1.518 0 0 0-.432 1.063z"/><path fill="#50239F" fill-rule="nonzero" d="M39.594 452.727h-7.56c-1.77-.028-3.188-1.498-3.188-3.302s1.419-3.274 3.187-3.302h7.56c1.77.028 3.189 1.498 3.189 3.302s-1.42 3.274-3.188 3.302z"/><path fill="#FFF" fill-rule="nonzero" d="M39.273 470.38h-6.65c-1.474 0-2.668-1.218-2.668-2.72 0-1.504 1.194-2.722 2.668-2.722h6.65c1.474 0 2.668 1.218 2.668 2.721 0 1.503-1.194 2.721-2.668 2.721z"/><path fill="#50239F" fill-rule="nonzero" d="M45.957 455.73H36.03c-.909-.02-1.635-.777-1.635-1.704 0-.927.726-1.684 1.635-1.704h9.927a1.664 1.664 0 0 1 1.477.84 1.734 1.734 0 0 1 0 1.726 1.664 1.664 0 0 1-1.477.842z"/></g></svg>