<?xml version="1.0" encoding="UTF-8"?>
<svg width="381px" height="488px" viewBox="0 0 381 488" version="1.1" xmlns="http://www.w3.org/2000/svg" xmlns:xlink="http://www.w3.org/1999/xlink">
    <!-- Generator: Sketch 52.6 (67491) - http://www.bohemiancoding.com/sketch -->
    <title>Group 3</title>
    <desc>Created with Sketch.</desc>
    <defs>
        <path d="M27,0 L195.773152,0 C210.68484,-2.73923269e-15 222.773152,12.0883118 222.773152,27 L222.773152,425.699571 C222.773152,440.611259 210.68484,452.699571 195.773152,452.699571 L27,452.699571 C12.0883118,452.699571 3.49367544e-14,440.611259 0,425.699571 L0,27 C-1.82615513e-15,12.0883118 12.0883118,2.73923269e-15 27,0 Z" id="path-1"></path>
        <filter x="-10.8%" y="-5.3%" width="121.5%" height="110.6%" filterUnits="objectBoundingBox" id="filter-2">
            <feOffset dx="0" dy="0" in="SourceAlpha" result="shadowOffsetOuter1"></feOffset>
            <feGaussianBlur stdDeviation="8" in="shadowOffsetOuter1" result="shadowBlurOuter1"></feGaussianBlur>
            <feColorMatrix values="0 0 0 0 0.105882353   0 0 0 0 0.266666667   0 0 0 0 0.474509804  0 0 0 0.2 0" type="matrix" in="shadowBlurOuter1"></feColorMatrix>
        </filter>
        <linearGradient x1="0%" y1="49.9954574%" x2="100.0097%" y2="49.9954574%" id="linearGradient-3">
            <stop stop-color="#00E8CC" offset="0%"></stop>
            <stop stop-color="#00E8CC" offset="95%"></stop>
        </linearGradient>
        <linearGradient x1="21208%" y1="6303%" x2="26123%" y2="6303%" id="linearGradient-4">
            <stop stop-color="#00E8CC" offset="0%"></stop>
            <stop stop-color="#00E8CC" offset="95%"></stop>
        </linearGradient>
        <linearGradient x1="22730%" y1="45931%" x2="26123%" y2="45931%" id="linearGradient-5">
            <stop stop-color="#00E8CC" offset="0%"></stop>
            <stop stop-color="#00E8CC" offset="95%"></stop>
        </linearGradient>
    </defs>
    <g id="Token-Migration" stroke="none" stroke-width="1" fill="none" fill-rule="evenodd">
        <g id="01.1-AirGap-Tutorial-Total-Update" transform="translate(-319.000000, -662.000000)">
            <g id="Group-2" transform="translate(285.000000, 548.000000)">
                <g id="Group-4">
                    <g id="Group-3" transform="translate(34.000000, 130.000000)">
                        <circle id="Oval" fill="#EDF3F7" cx="344.5" cy="31.5" r="23.5"></circle>
                        <polygon id="Rectangle" fill="#EDF3F7" points="296.267525 302.319975 380.750115 386.802566 296.267525 471.285156 211.784934 386.802566"></polygon>
                        <polygon id="Rectangle-Copy" fill="#EDF3F7" points="37.1042848 109.992071 128.940612 147.096355 91.8363275 238.932683 1.33582034e-12 201.828398"></polygon>
                        <g id="Group-4" transform="translate(83.000000, 0.000000)">
                            <g id="Rectangle-10">
                                <use fill="black" fill-opacity="1" filter="url(#filter-2)" xlink:href="#path-1"></use>
                                <use fill="#FFFFFF" fill-rule="evenodd" xlink:href="#path-1"></use>
                            </g>
                            <path d="M17,53 L205.813769,53 C207.470623,53 208.813769,54.3431458 208.813769,56 L208.813769,396.288118 C208.813769,397.944972 207.470623,399.288118 205.813769,399.288118 L17,399.288118 C15.3431458,399.288118 14,397.944972 14,396.288118 L14,56 C14,54.3431458 15.3431458,53 17,53 Z" id="Rectangle-12" fill="#6948A1"></path>
                            <g id="Group-8" transform="translate(93.000000, 206.000000)" fill-rule="nonzero">
                                <g id="AirGap_Shield_Logo_newcolors">
                                    <g id="Ebene_1">
                                        <path d="M15.9953541,0.869667319 C15.9953541,0.116634051 15.4603924,-0.189432485 14.8066378,0.190215264 C14.8066378,0.190215264 12.2891711,1.65401174 10.3853369,2.55342466 C8.09837571,3.63600783 4.49997174,4.58864971 2.22323779,5.02935421 C0.743439387,5.31506849 0.531028134,6.25675147 0.458650966,7.1334638 C0.349298506,8.46418787 0.276134629,10.0782779 0.234439087,11.4105675 C0.126660044,14.8704501 -0.183303045,18.4853229 0.191170128,21.9311155 C0.416168715,24.0007828 0.986532266,26.3342466 1.95969049,28.1933464 C3.37040881,30.9044425 5.23783352,33.3548115 7.48080966,35.4379648 C9.74102274,37.5272016 14.7484214,39.8536204 14.7484214,39.8536204 C15.434431,40.1722114 15.9961408,39.8168297 15.9961408,39.0630137 L15.9953541,0.869667319 Z" id="Shape" fill="#311B58"></path>
                                        <path d="M10.3467882,4.64500978 C7.06778778,5.93189824 2.35147125,7.01056751 2.35147125,7.01056751 C2.21458399,8.74363992 2.07848345,10.4853229 2.02498728,12.2246575 C1.92900886,15.3088063 1.65287424,18.5307241 1.98643857,21.6023483 C2.1870492,23.4473581 2.69447609,25.5272016 3.55985527,27.1827789 C4.82252216,29.5937378 6.47067615,32.0093933 8.48150268,33.8669276 C10.4923292,35.7244618 13.0341839,36.9393346 15.5036614,38.0845401 L15.992994,38.3099804 L15.992994,1.97651663 C14.1699303,2.98469142 12.2840243,3.87600273 10.3467882,4.64500978 Z" id="Shape" fill="#00E8CC"></path>
                                        <path d="M20.0075667,39.0606654 C20.0075667,39.8136986 20.5684897,40.1690802 21.2544994,39.8489237 C21.2544994,39.8489237 26.2390835,37.5248532 28.5000833,35.4348337 C30.743071,33.3516908 32.6104973,30.9013197 34.0212024,28.1902153 C34.9943607,26.3334638 35.5647242,24 35.7897228,21.9279843 C36.164196,18.4837573 35.8542329,14.867319 35.7464538,11.4074364 C35.7047583,10.0767123 35.6323811,8.46027397 35.522242,7.13033268 C35.4498648,6.25362035 35.2374535,5.3111546 33.7576551,5.02622309 C31.4817079,4.58630137 27.8825172,3.63209393 25.595556,2.55029354 C23.707456,1.6555773 21.1970697,0.201956947 21.1970697,0.201956947 C20.543315,-0.177690802 20.0075667,0.128375734 20.0075667,0.881409002 L20.0075667,39.0606654 Z" id="Shape" fill="#311B58"></path>
                                        <path d="M20.4795917,38.0845401 C22.9482825,36.9393346 25.4862036,35.7291585 27.5009637,33.8669276 C29.5157237,32.0046967 31.1599442,29.5937378 32.4226111,27.1827789 C33.2879902,25.5272016 33.798564,23.4473581 33.9960278,21.6023483 C34.3295921,18.5307241 34.0534575,15.3088063 33.9574791,12.2246575 C33.9031962,10.4853229 33.7670956,8.7444227 33.6309951,7.01056751 C33.6309951,7.01056751 28.9154653,5.93189824 25.6364649,4.64500978 C23.7044567,3.87780441 21.8235578,2.98885302 20.0052065,1.98356164 L20.0052065,38.3013699 L20.4795917,38.0845401 Z" id="Shape" fill="#50239F"></path>
                                        <polygon id="Rectangle-path" fill="url(#linearGradient-3)" points="12.8862827 14.2363992 20.996459 14.2363992 20.996459 22.8524462 12.8862827 22.8524462"></polygon>
                                    </g>
                                    <g id="Ebene_5" transform="translate(6.000000, 3.000000)">
                                        <path d="M17.8641088,8.13367322 L2.33393421,8.13367322 C1.14147923,8.11080993 0.186525574,7.11842765 0.186525574,5.90209866 C0.186525574,4.68576968 1.14147923,3.6933874 2.33393421,3.67052411 L17.8641088,3.67052411 C19.0565637,3.6933874 20.0115174,4.68576968 20.0115174,5.90209866 C20.0115174,7.11842765 19.0565637,8.11080993 17.8641088,8.13367322 Z" id="Shape" fill="#00E8CC"></path>
                                        <path d="M17.1433577,22.4813687 L2.33393421,22.4813687 C1.047287,22.4813687 0.00425335923,21.4176405 0.00425335923,20.1054654 C0.00425335923,18.7932902 1.047287,17.7295621 2.33393421,17.7295621 L17.1433577,17.7295621 C18.4300049,17.7295621 19.4730386,18.7932902 19.4730386,20.1054654 C19.4730386,21.4176405 18.4300049,22.4813687 17.1433577,22.4813687 Z" id="Shape" fill="#00E8CC"></path>
                                        <path d="M17.8641088,26.9476725 L7.93754166,26.9476725 C6.74508668,26.9248092 5.79013303,25.9324269 5.79013303,24.7160979 C5.79013303,23.499769 6.74508668,22.5073867 7.93754166,22.4845234 L17.8641088,22.4845234 C19.0565637,22.5073867 20.0115174,23.499769 20.0115174,24.7160979 C20.0115174,25.9324269 19.0565637,26.9248092 17.8641088,26.9476725 Z" id="Shape" fill="#50239F"></path>
                                        <path d="M10.2312623,2.17124041 C10.2312623,1.3407587 10.2312623,0.00315472635 10.2312623,0.00315472635 L9.05269512,0.0725587061 L9.05269512,3.94340794 L12.8536516,3.94340794 L12.8536516,3.67446752 L11.7052446,3.67446752 C10.8911867,3.67446752 10.2312623,3.00144982 10.2312623,2.17124041 Z" id="Shape" fill="url(#linearGradient-4)"></path>
                                        <path d="M10.2312623,33.8880705 C10.2312623,34.7185522 10.2312623,34.1546448 10.2312623,34.1546448 L10.2312623,32.1640125 L12.8536516,32.1151143 L12.8536516,32.3848434 L11.7052446,32.3848434 C11.3143202,32.3848434 10.939407,32.5432186 10.6629817,32.8251284 C10.3865564,33.1070382 10.2312623,33.4893899 10.2312623,33.8880705 Z" id="Shape" fill="url(#linearGradient-5)"></path>
                                        <path d="M15.5935883,14.7270513 L8.03343558,14.7270513 C6.26487841,14.6991748 4.84550811,13.2290978 4.84550811,11.4252358 C4.84550811,9.62137388 6.26487841,8.15129689 8.03343558,8.12342035 L15.5935883,8.12342035 C17.3621454,8.15129689 18.7815157,9.62137388 18.7815157,11.4252358 C18.7815157,13.2290978 17.3621454,14.6991748 15.5935883,14.7270513 Z" id="Shape" fill="#50239F"></path>
                                        <path d="M15.2734263,32.3801113 L8.62271917,32.3801113 C7.14921448,32.3801113 5.95470292,31.1618998 5.95470292,29.6591598 C5.95470292,28.1564198 7.14921448,26.9382083 8.62271917,26.9382083 L15.2734263,26.9382083 C16.746931,26.9382083 17.9414426,28.1564198 17.9414426,29.6591598 C17.9414426,31.1618998 16.746931,32.3801113 15.2734263,32.3801113 Z" id="Shape" fill="#00E8CC"></path>
                                        <path d="M21.9566137,17.7295621 L12.0300466,17.7295621 C11.1212962,17.7096221 10.3948108,16.9526106 10.3948108,16.0256155 C10.3948108,15.0986204 11.1212962,14.3416089 12.0300466,14.321669 L21.9566137,14.321669 C22.5621008,14.3083832 23.1272532,14.6302166 23.4338199,15.1628831 C23.7403866,15.6955497 23.7403866,16.3556813 23.4338199,16.8883479 C23.1272532,17.4210145 22.5621008,17.7428478 21.9566137,17.7295621 Z" id="Shape" fill="#50239F"></path>
                                    </g>
                                </g>
                            </g>
                            <circle id="Oval-4" stroke="#D3DCE6" stroke-width="2" fill="#FFFFFF" cx="111" cy="425" r="16"></circle>
                        </g>
                    </g>
                </g>
            </g>
        </g>
    </g>
</svg>