<svg width="250" height="250" xmlns="http://www.w3.org/2000/svg" xmlns:xlink="http://www.w3.org/1999/xlink"><defs><path d="M16.375 2.083h17.25c.553 0 1.082.22 1.473.61l12.208 12.209c.391.39.61.92.61 1.473v17.25c0 .553-.219 1.082-.61 1.473L35.098 47.306c-.39.391-.92.61-1.473.61h-17.25c-.553 0-1.082-.219-1.473-.61L2.694 35.098c-.391-.39-.61-.92-.61-1.473v-17.25c0-.553.219-1.082.61-1.473L14.902 2.694c.39-.391.92-.61 1.473-.61zm.863 4.167L6.25 17.238v15.524L17.238 43.75h15.524L43.75 32.762V17.238L32.762 6.25H17.238zm5.679 10.417a2.083 2.083 0 1 1 4.166 0V25a2.083 2.083 0 0 1-4.166 0v-8.333zm.61 16.056a2.083 2.083 0 1 1 2.946-2.946 2.083 2.083 0 0 1-2.946 2.946z" id="a"/></defs><g fill="none" fill-rule="evenodd"><path fill="#EDF3F7" d="M-595-208H845v800H-595z"/><g transform="translate(100 100)"><mask id="b" fill="#fff"><use xlink:href="#a"/></mask><use fill="#000" xlink:href="#a"/><g mask="url(#b)" fill="#000"><path d="M0 0h50v50H0z"/></g></g></g></svg>