<svg width="254" height="254" xmlns="http://www.w3.org/2000/svg" xmlns:xlink="http://www.w3.org/1999/xlink"><defs><path d="M24.75 4.5a2.25 2.25 0 1 1 4.5 0v9a2.25 2.25 0 1 1-4.5 0v-9zm0 36a2.25 2.25 0 1 1 4.5 0v9a2.25 2.25 0 1 1-4.5 0v-9zM9.502 12.683a2.25 2.25 0 0 1 3.181-3.181l6.368 6.367a2.25 2.25 0 0 1-3.182 3.182l-6.367-6.368zm25.447 25.448a2.25 2.25 0 0 1 3.182-3.182l6.367 6.368a2.25 2.25 0 0 1-3.181 3.181l-6.368-6.367zM4.5 29.25a2.25 2.25 0 1 1 0-4.5h9a2.25 2.25 0 1 1 0 4.5h-9zm36 0a2.25 2.25 0 1 1 0-4.5h9a2.25 2.25 0 1 1 0 4.5h-9zM12.683 44.498a2.25 2.25 0 0 1-3.181-3.181l6.367-6.368a2.25 2.25 0 0 1 3.182 3.182l-6.368 6.367zm25.448-25.447a2.25 2.25 0 0 1-3.182-3.182l6.368-6.367a2.25 2.25 0 0 1 3.181 3.181l-6.367 6.368z" id="a"/></defs><g fill="none" fill-rule="evenodd"><path fill="#EDF3F7" d="M-593-238H847v800H-593z"/><g transform="translate(100 100)"><mask id="b" fill="#fff"><use xlink:href="#a"/></mask><use fill="#000" fill-rule="nonzero" xlink:href="#a"/><g mask="url(#b)" fill="#000"><path d="M0 0h54v54H0z"/></g></g></g></svg>