<svg width="482" height="440" xmlns="http://www.w3.org/2000/svg" xmlns:xlink="http://www.w3.org/1999/xlink"><defs><path d="M10.86.854C5.337.854.857 5.322.857 10.847V203.58c0 5.518 4.48 9.992 10.005 9.992h294.706c5.526 0 10.005-4.468 10.005-9.992V10.847c0-5.519-4.48-9.993-10.005-9.993H10.861z" id="a"/><path id="b" d="M11.561 12.387v183.246h292.878V12.387z"/><ellipse id="d" cx="1.285" cy="1.281" rx="1.285" ry="1.281"/><filter x="-233.5%" y="-234.1%" width="567.1%" height="568.2%" filterUnits="objectBoundingBox" id="e"><feGaussianBlur stdDeviation="2" in="SourceAlpha" result="shadowBlurInner1"/><feOffset dx="8" in="shadowBlurInner1" result="shadowOffsetInner1"/><feComposite in="shadowOffsetInner1" in2="SourceAlpha" operator="arithmetic" k2="-1" k3="1" result="shadowInnerInner1"/><feColorMatrix values="0 0 0 0 0 0 0 0 0 0 0 0 0 0 0 0 0 0 0.5 0" in="shadowInnerInner1"/></filter><path d="M.073 7.405H384.94s-11.604 6.469-16.035 6.469c-4.432 0-351.89 1.003-351.89 1.003s-9.978-1.4-13.069-3.736C.856 8.806.073 7.405.073 7.405z" id="h"/><filter x="-6.2%" y="-321.2%" width="112.5%" height="742.3%" filterUnits="objectBoundingBox" id="g"><feOffset in="SourceAlpha" result="shadowOffsetOuter1"/><feGaussianBlur stdDeviation="8" in="shadowOffsetOuter1" result="shadowBlurOuter1"/><feColorMatrix values="0 0 0 0 0.105882353 0 0 0 0 0.266666667 0 0 0 0 0.474509804 0 0 0 0.15 0" in="shadowBlurOuter1"/></filter><rect id="i" x="0" y="0" width="385" height="7.84" rx="1"/><filter x="-6.2%" y="-306.1%" width="112.5%" height="712.2%" filterUnits="objectBoundingBox" id="j"><feOffset in="SourceAlpha" result="shadowOffsetOuter1"/><feGaussianBlur stdDeviation="8" in="shadowOffsetOuter1" result="shadowBlurOuter1"/><feColorMatrix values="0 0 0 0 0.105882353 0 0 0 0 0.266666667 0 0 0 0 0.474509804 0 0 0 0.15 0" in="shadowBlurOuter1"/></filter><path d="M170.118-3.485a4.142 4.142 0 0 0-4.14 4.138 4.141 4.141 0 0 0 4.14 4.138h44.764a4.142 4.142 0 0 0 4.14-4.138 4.141 4.141 0 0 0-4.14-4.138h-44.764z" id="m"/><filter x="-45.2%" y="-290%" width="190.5%" height="680%" filterUnits="objectBoundingBox" id="l"><feOffset in="SourceAlpha" result="shadowOffsetOuter1"/><feGaussianBlur stdDeviation="8" in="shadowOffsetOuter1" result="shadowBlurOuter1"/><feColorMatrix values="0 0 0 0 0.105882353 0 0 0 0 0.266666667 0 0 0 0 0.474509804 0 0 0 0.15 0" in="shadowBlurOuter1"/></filter><filter x="-5.2%" y="-5.2%" width="110.3%" height="110.3%" filterUnits="objectBoundingBox" id="n"><feOffset in="SourceAlpha" result="shadowOffsetOuter1"/><feGaussianBlur stdDeviation="2.5" in="shadowOffsetOuter1" result="shadowBlurOuter1"/><feColorMatrix values="0 0 0 0 0.215686275 0 0 0 0 0.215686275 0 0 0 0 0.215686275 0 0 0 0.23 0" in="shadowBlurOuter1" result="shadowMatrixOuter1"/><feMerge><feMergeNode in="shadowMatrixOuter1"/><feMergeNode in="SourceGraphic"/></feMerge></filter><circle id="p" cx="97.975" cy="34.382" r="11.127"/><filter x="-29.2%" y="-29.2%" width="158.4%" height="158.4%" filterUnits="objectBoundingBox" id="o"><feMorphology radius=".5" operator="dilate" in="SourceAlpha" result="shadowSpreadOuter1"/><feOffset in="shadowSpreadOuter1" result="shadowOffsetOuter1"/><feGaussianBlur stdDeviation="2" in="shadowOffsetOuter1" result="shadowBlurOuter1"/><feComposite in="shadowBlurOuter1" in2="SourceAlpha" operator="out" result="shadowBlurOuter1"/><feColorMatrix values="0 0 0 0 0.572 0 0 0 0 0.611 0 0 0 0 0.65 0 0 0 1 0" in="shadowBlurOuter1"/></filter><filter x="-38.2%" y="-38.2%" width="176.4%" height="176.4%" filterUnits="objectBoundingBox" id="q"><feGaussianBlur stdDeviation="4" in="SourceAlpha" result="shadowBlurInner1"/><feOffset in="shadowBlurInner1" result="shadowOffsetInner1"/><feComposite in="shadowOffsetInner1" in2="SourceAlpha" operator="arithmetic" k2="-1" k3="1" result="shadowInnerInner1"/><feColorMatrix values="0 0 0 0 0.57254902 0 0 0 0 0.611764706 0 0 0 0 0.650980392 0 0 0 0.28 0" in="shadowInnerInner1"/></filter></defs><g fill="none" fill-rule="evenodd"><path d="M412.72 239.5v79.788c0 25.73-6.313 29.804-21.72 30.108-21.562.426-15.988 0-25.965 0-18.295 0-18.295 31.485.528 31.485h98.685c19.967 0 19.197 32.832 0 32.832h-89.712" stroke="#062345" stroke-width="6" stroke-linecap="square" stroke-linejoin="round"/><path d="M425 228v25.475a3 3 0 0 1-3 3h-19a3 3 0 0 1-3-3V228a3 3 0 0 1 3-3h19a3 3 0 0 1 3 3z" fill="#062345"/><g transform="translate(50 205)"><rect fill="#C1C1C1" width="316" height="214" rx="10"/><use fill="#1F3040" xlink:href="#a"/><mask id="c" fill="#fff"><use xlink:href="#b"/></mask><use fill="#4E5A66" xlink:href="#b"/><g mask="url(#c)"><g transform="translate(156.715 5.553)"><mask id="f" fill="#fff"><use xlink:href="#d"/></mask><use fill="#3A4044" xlink:href="#d"/><use fill="#000" filter="url(#e)" xlink:href="#d"/><ellipse fill="#FFF" opacity=".822" style="mix-blend-mode:overlay" mask="url(#f)" cx="-.856" cy="2.99" rx="3.425" ry="1.709"/></g></g></g><g transform="translate(16 410)"><use fill="#000" filter="url(#g)" xlink:href="#h"/><use fill="#203040" xlink:href="#h"/><mask id="k" fill="#fff"><use xlink:href="#i"/></mask><use fill="#000" filter="url(#j)" xlink:href="#i"/><use fill="#203040" xlink:href="#i"/><g mask="url(#k)"><use fill="#000" filter="url(#l)" xlink:href="#m"/><use fill="#001833" xlink:href="#m"/></g></g><g><g filter="url(#n)" transform="rotate(45 230.266 487.546)"><path d="M74.2 101.661l27.206-27.206a4 4 0 0 1 5.657 0l92.446 92.446a4 4 0 0 1 0 5.657l-27.206 27.206a4 4 0 0 1-5.657 0L74.2 107.318a4 4 0 0 1 0-5.657z" fill="#001833"/><path d="M136.362 107.705l1.976-1.975a2 2 0 0 1 2.828 0l11.512 11.512a2 2 0 0 1 0 2.828l-1.975 1.976a2 2 0 0 1-2.829 0l-11.512-11.512a2 2 0 0 1 0-2.829zM179.496 150.839l1.975-1.976a2 2 0 0 1 2.829 0l11.512 11.512a2 2 0 0 1 0 2.829l-1.976 1.975a2 2 0 0 1-2.828 0l-11.512-11.512a2 2 0 0 1 0-2.828z" fill="#001833"/><path d="M119.467 130.675l11.296-11.296a2 2 0 0 1 2.828 0l48.034 48.034a2 2 0 0 1 0 2.828l-11.296 11.296a2 2 0 0 1-2.828 0l-48.034-48.033a2 2 0 0 1 0-2.829z" fill="#203040"/><path d="M115.742 115.978c-9.075 9.075-23.788 9.075-32.863 0L4.036 37.135a4 4 0 0 1 0-5.657L31.243 4.272a4 4 0 0 1 5.656 0l78.843 78.843c9.075 9.075 9.075 23.788 0 32.863z" fill="#D3DCE6"/><g transform="rotate(90 65.899 66.73)"><use fill="#000" filter="url(#o)" xlink:href="#p"/><use fill="#F7FAFC" xlink:href="#p"/><use fill="#000" filter="url(#q)" xlink:href="#p"/><use stroke="#76818C" xlink:href="#p"/></g><path d="M47.537 32.844L41.12 26.43l-8.69 8.69 8.61 8.61L47.47 37.3c1.224-1.217 1.276-3.246.067-4.456zm-8.386-8.386l-1.077-1.076c-1.21-1.21-3.238-1.25-4.508.021L32.48 24.49l3.32 3.32 3.35-3.35zm-8.706 2.066l3.32 3.32-3.351 3.351-3.32-3.32 3.351-3.35zM32.338 45.8l1.077 1.076c1.209 1.21 3.238 1.25 4.508-.02l1.083-1.084-3.32-3.32-3.348 3.348zm-1.946-8.641l3.32 3.32-3.351 3.35-3.32-3.32 3.351-3.35zm-5.29-5.29l-1.087 1.086c-1.22 1.22-1.28 3.25-.02 4.508l1.076 1.076 3.35-3.35-3.32-3.32z" fill="#929CA6" fill-rule="nonzero"/></g></g></g></svg>