<svg width="493" height="306" xmlns="http://www.w3.org/2000/svg" xmlns:xlink="http://www.w3.org/1999/xlink"><defs><filter x="-3.4%" y="-3.4%" width="106.7%" height="106.7%" filterUnits="objectBoundingBox" id="a"><feOffset in="SourceAlpha" result="shadowOffsetOuter1"/><feGaussianBlur stdDeviation="2.5" in="shadowOffsetOuter1" result="shadowBlurOuter1"/><feColorMatrix values="0 0 0 0 0.215686275 0 0 0 0 0.215686275 0 0 0 0 0.215686275 0 0 0 0.23 0" in="shadowBlurOuter1" result="shadowMatrixOuter1"/><feMerge><feMergeNode in="shadowMatrixOuter1"/><feMergeNode in="SourceGraphic"/></feMerge></filter><ellipse id="c" cx="151.385" cy="53.179" rx="17.193" ry="17.211"/><filter x="-18.9%" y="-18.9%" width="137.8%" height="137.8%" filterUnits="objectBoundingBox" id="b"><feMorphology radius=".5" operator="dilate" in="SourceAlpha" result="shadowSpreadOuter1"/><feOffset in="shadowSpreadOuter1" result="shadowOffsetOuter1"/><feGaussianBlur stdDeviation="2" in="shadowOffsetOuter1" result="shadowBlurOuter1"/><feComposite in="shadowBlurOuter1" in2="SourceAlpha" operator="out" result="shadowBlurOuter1"/><feColorMatrix values="0 0 0 0 0.572 0 0 0 0 0.611 0 0 0 0 0.65 0 0 0 1 0" in="shadowBlurOuter1"/></filter><filter x="-24.7%" y="-24.7%" width="149.4%" height="149.4%" filterUnits="objectBoundingBox" id="d"><feGaussianBlur stdDeviation="4" in="SourceAlpha" result="shadowBlurInner1"/><feOffset in="shadowBlurInner1" result="shadowOffsetInner1"/><feComposite in="shadowOffsetInner1" in2="SourceAlpha" operator="arithmetic" k2="-1" k3="1" result="shadowInnerInner1"/><feColorMatrix values="0 0 0 0 0.57254902 0 0 0 0 0.611764706 0 0 0 0 0.650980392 0 0 0 0.28 0" in="shadowInnerInner1"/></filter></defs><g fill="none" fill-rule="evenodd"><path d="M314 48.658h79.788c25.73 0 29.804 6.314 30.108 21.72.426 21.562 0 45.99 0 55.966 0 18.295 31.485 18.295 31.485-.528V27.13c0-19.967 32.832-19.197 32.832 0V306" stroke="#062345" stroke-width="8" stroke-linejoin="round"/><path d="M357 29.5h41.475a3 3 0 0 1 3 3v32a3 3 0 0 1-3 3H357a3 3 0 0 1-3-3v-32a3 3 0 0 1 3-3z" fill="#062345"/><g filter="url(#a)" transform="rotate(-45 37.243 60.629)"><path d="M113.515 156.375l42.297-42.34a6 6 0 0 1 8.49 0l143.101 143.248a6 6 0 0 1 0 8.48l-42.297 42.34a6 6 0 0 1-8.49 0l-143.1-143.247a6 6 0 0 1 0-8.48z" fill="#001833"/><path d="M208.925 166.363l4.596-4.6a2 2 0 0 1 2.83 0l19.33 19.35a2 2 0 0 1 0 2.828l-4.595 4.6a2 2 0 0 1-2.828.001l-.002-.001-19.33-19.35a2 2 0 0 1 0-2.828zM275.573 233.078l4.595-4.6a2 2 0 0 1 2.83 0l19.331 19.35a2 2 0 0 1 0 2.828l-4.595 4.6a2 2 0 0 1-2.83 0l-19.331-19.35a2 2 0 0 1 0-2.828z" fill="#001833"/><path d="M184.673 203.78l18.996-19.015a2 2 0 0 1 2.829-.002l.001.002 75.762 75.839a2 2 0 0 1 0 2.827l-18.997 19.016a2 2 0 0 1-2.828.001l-.002-.001-75.761-75.84a2 2 0 0 1 0-2.826z" fill="#203040"/><g fill="#1A7AFB"><path d="M245.18 233.779c-2.42-2.42-5.584-2.576-8.882-2.146l-.385 2.085c3.1-.474 5.903-.484 7.858 1.47 2.245 2.245 2.493 5.73.726 8.187l-5.573-5.573-1.41 1.41 7.016 7.015c.263-.205.513-.426.748-.662 3.223-3.222 3.179-8.51-.098-11.786"/><path d="M235.082 244.278c-2.39-2.39-1.914-6.02-.903-11.034 1.01-5.015 1.321-9.105-1.61-12.036-3.277-3.277-8.564-3.321-11.787-.099-3.222 3.223-3.178 8.51.099 11.787 2.416 2.416 5.573 2.575 8.865 2.148l.4-2.087c-3.1.474-5.902.483-7.856-1.47-2.489-2.49-2.525-6.504-.08-8.95 2.446-2.445 6.46-2.41 8.95.08 2.39 2.39 1.933 5.83.904 11.026-1.03 5.194-1.322 9.114 1.609 12.045a8.415 8.415 0 0 0 9.27 1.81l-1.573-1.573a6.407 6.407 0 0 1-6.288-1.647"/></g><path d="M179.252 176.972l-2.722 2.72c-13.275 13.261-34.784 13.261-48.059 0L6.43 57.773a8 8 0 0 1 0-11.32l39.51-39.47a8 8 0 0 1 11.308 0l122.005 121.88c13.284 13.272 13.295 34.8.024 48.084a34.02 34.02 0 0 1-.024.024z" fill="#D3DCE6"/><g transform="rotate(90 101.822 102.212)"><use fill="#000" filter="url(#b)" xlink:href="#c"/><use fill="#F7FAFC" xlink:href="#c"/><use fill="#000" filter="url(#d)" xlink:href="#c"/><use stroke="#76818C" xlink:href="#c"/></g><path d="M72.413 49.843L62.5 39.93 49.058 53.372l13.304 13.304 9.945-9.945c1.893-1.882 1.975-5.02.106-6.888zM59.456 36.886l-1.663-1.663c-1.87-1.87-5.005-1.93-6.97.036l-1.68 1.68 5.13 5.13 5.183-5.183zm-13.46 3.2l5.13 5.13-5.184 5.183-5.13-5.13 5.184-5.183zm2.911 29.796l1.663 1.663c1.87 1.869 5.005 1.929 6.97-.036l1.675-1.675-5.13-5.13-5.178 5.178zm-3.002-13.357l5.13 5.13-5.183 5.183-5.13-5.13 5.183-5.183zm-8.174-8.175l-1.68 1.68c-1.888 1.889-1.98 5.026-.036 6.97l1.663 1.663 5.183-5.183-5.13-5.13z" fill="#929CA6" fill-rule="nonzero"/></g></g></svg>