<?xml version="1.0" encoding="UTF-8"?>
<svg width="493px" height="306px" viewBox="0 0 493 306" version="1.1" xmlns="http://www.w3.org/2000/svg" xmlns:xlink="http://www.w3.org/1999/xlink">
    <!-- Generator: Sketch 52.2 (67145) - http://www.bohemiancoding.com/sketch -->
    <title>2.0-create-account-on-ledger</title>
    <desc>Created with Sketch.</desc>
    <defs>
        <filter x="-3.4%" y="-3.4%" width="106.7%" height="106.7%" filterUnits="objectBoundingBox" id="filter-1">
            <feOffset dx="0" dy="0" in="SourceAlpha" result="shadowOffsetOuter1"></feOffset>
            <feGaussianBlur stdDeviation="2.5" in="shadowOffsetOuter1" result="shadowBlurOuter1"></feGaussianBlur>
            <feColorMatrix values="0 0 0 0 0.215686275   0 0 0 0 0.215686275   0 0 0 0 0.215686275  0 0 0 0.23 0" type="matrix" in="shadowBlurOuter1" result="shadowMatrixOuter1"></feColorMatrix>
            <feMerge>
                <feMergeNode in="shadowMatrixOuter1"></feMergeNode>
                <feMergeNode in="SourceGraphic"></feMergeNode>
            </feMerge>
        </filter>
        <ellipse id="path-2" cx="151.384788" cy="53.1791693" rx="17.1933053" ry="17.2108188"></ellipse>
        <filter x="-18.9%" y="-18.9%" width="137.8%" height="137.8%" filterUnits="objectBoundingBox" id="filter-3">
            <feMorphology radius="0.5" operator="dilate" in="SourceAlpha" result="shadowSpreadOuter1"></feMorphology>
            <feOffset dx="0" dy="0" in="shadowSpreadOuter1" result="shadowOffsetOuter1"></feOffset>
            <feGaussianBlur stdDeviation="2" in="shadowOffsetOuter1" result="shadowBlurOuter1"></feGaussianBlur>
            <feComposite in="shadowBlurOuter1" in2="SourceAlpha" operator="out" result="shadowBlurOuter1"></feComposite>
            <feColorMatrix values="0 0 0 0 0.572   0 0 0 0 0.611   0 0 0 0 0.65  0 0 0 1 0" type="matrix" in="shadowBlurOuter1"></feColorMatrix>
        </filter>
        <filter x="-24.7%" y="-24.7%" width="149.4%" height="149.4%" filterUnits="objectBoundingBox" id="filter-4">
            <feGaussianBlur stdDeviation="4" in="SourceAlpha" result="shadowBlurInner1"></feGaussianBlur>
            <feOffset dx="0" dy="0" in="shadowBlurInner1" result="shadowOffsetInner1"></feOffset>
            <feComposite in="shadowOffsetInner1" in2="SourceAlpha" operator="arithmetic" k2="-1" k3="1" result="shadowInnerInner1"></feComposite>
            <feColorMatrix values="0 0 0 0 0.57254902   0 0 0 0 0.611764706   0 0 0 0 0.650980392  0 0 0 0.28 0" type="matrix" in="shadowInnerInner1"></feColorMatrix>
        </filter>
    </defs>
    <g id="Token-Migration" stroke="none" stroke-width="1" fill="none" fill-rule="evenodd">
        <g id="01.2-Ledger" transform="translate(-182.000000, -1455.000000)">
            <g id="Group-2" transform="translate(150.000000, 1275.000000)">
                <g id="2.0-create-account-on-ledger" transform="translate(260.500000, 244.500000) rotate(-90.000000) translate(-260.500000, -244.500000) translate(19.000000, -16.000000)">
                    <g id="Group-4">
                        <path d="M36.2150402,346 C36.2150402,382.039673 36.2150402,408.635806 36.2150402,425.788397 C36.2150402,451.517285 42.5293161,455.591682 57.9359074,455.896122 C79.4974394,456.322186 103.924149,455.896122 113.901218,455.896122 C132.196062,455.896122 132.196062,487.38121 113.372951,487.38121 C97.4001119,487.38121 56.7986083,487.38121 14.6881971,487.38121 C-5.27927688,487.38121 -4.50906854,520.212805 14.6881971,520.212805 C27.4863742,520.212805 120.442649,520.212805 293.557023,520.212805" id="Line" stroke="#062345" stroke-width="8" stroke-linejoin="round" transform="translate(146.778511, 433.106403) scale(-1, 1) translate(-146.778511, -433.106403) "></path>
                        <path d="M236.762364,390.737636 L278.237636,390.737636 C279.89449,390.737636 281.237636,392.080782 281.237636,393.737636 L281.237636,425.737636 C281.237636,427.39449 279.89449,428.737636 278.237636,428.737636 L236.762364,428.737636 C235.10551,428.737636 233.762364,427.39449 233.762364,425.737636 L233.762364,393.737636 C233.762364,392.080782 235.10551,390.737636 236.762364,390.737636 Z" id="Rectangle-10" fill="#062345" transform="translate(257.500000, 409.737636) rotate(90.000000) translate(-257.500000, -409.737636) "></path>
                        <g id="Group-7-Copy-2" transform="translate(40.000000, 0.000000)">
                            <g id="Group-3" filter="url(#filter-1)" transform="translate(221.553916, 221.008182) rotate(45.000000) translate(-221.553916, -221.008182) translate(65.553916, 64.508182)">
                                <path d="M180.584068,103.845143 L240.431388,103.814678 C243.745096,103.812991 246.432755,106.497915 246.434442,109.811623 C246.434443,109.813659 246.434443,109.815695 246.434442,109.817731 L246.331369,312.296968 C246.329684,315.60829 243.645747,318.292227 240.334424,318.293912 L180.487104,318.324378 C177.173396,318.326065 174.485737,315.641141 174.484051,312.327433 C174.48405,312.325397 174.48405,312.323361 174.484051,312.321324 L174.587123,109.842088 C174.588809,106.530766 177.272745,103.846829 180.584068,103.845143 Z" id="Rectangle-10" fill="#001833" transform="translate(210.459246, 211.069528) rotate(-45.000000) translate(-210.459246, -211.069528) "></path>
                                <path d="M219.058382,159.477433 L225.560863,159.474123 C226.665432,159.47356 227.561318,160.368535 227.561881,161.473104 C227.561881,161.473783 227.561881,161.474462 227.561881,161.475141 L227.547957,188.827237 C227.547395,189.931011 226.65275,190.825657 225.548975,190.826219 L219.046495,190.829529 C217.941926,190.830091 217.046039,189.935116 217.045477,188.830547 C217.045477,188.829868 217.045477,188.82919 217.045477,188.828511 L217.059401,161.476414 C217.059963,160.37264 217.954608,159.477995 219.058382,159.477433 Z" id="Rectangle-10" fill="#001833" transform="translate(222.303679, 175.151826) rotate(-45.000000) translate(-222.303679, -175.151826) "></path>
                                <path d="M285.705652,226.192591 L292.208132,226.18928 C293.312702,226.188718 294.208588,227.083693 294.20915,228.188262 C294.20915,228.188941 294.20915,228.18962 294.20915,228.190298 L294.195226,255.542395 C294.194665,256.646169 293.300019,257.540814 292.196245,257.541376 L285.693764,257.544686 C284.589195,257.545249 283.693309,256.650274 283.692747,255.545705 C283.692746,255.545026 283.692746,255.544347 283.692747,255.543669 L283.70667,228.191572 C283.707232,227.087798 284.601878,226.193152 285.705652,226.192591 Z" id="Rectangle-10" fill="#001833" transform="translate(288.950948, 241.866983) rotate(-45.000000) translate(-288.950948, -241.866983) "></path>
                                <path d="M184.672589,203.780859 L203.669262,184.764835 C204.449913,183.983389 205.716243,183.982744 206.497689,184.763395 L206.499128,184.764835 L282.261017,260.603896 C283.041106,261.38478 283.041106,262.65 282.261017,263.430883 L263.264343,282.446907 C262.483692,283.228353 261.217363,283.228998 260.435917,282.448347 L260.434477,282.446907 L184.672589,206.607846 C183.8925,205.826962 183.8925,204.561742 184.672589,203.780859 Z" id="Rectangle-10" fill="#203040"></path>
                                <g id="Group-10" transform="translate(233.393398, 233.550253) rotate(45.000000) translate(-233.393398, -233.550253) translate(214.393398, 224.050253)" fill="#1A7AFB">
                                    <path d="M27.4960718,1.32720572 C24.0725941,1.32720572 21.7260257,3.45482846 19.6979704,6.09088375 L20.8997577,7.83700294 C22.7576393,5.30914016 24.7320999,3.32022778 27.4960718,3.32022778 C30.6708986,3.32022778 33.310926,5.60927357 33.7984414,8.59539387 L25.9171222,8.59539387 L25.9171222,10.5885072 L35.8386937,10.5885072 C35.879369,10.2578595 35.8998166,9.9250598 35.8999234,9.59194613 C35.8999234,5.03474454 32.1299683,1.32720572 27.4960718,1.32720572" id="Shape"></path>
                                    <path d="M27.7801128,15.8917972 C24.3999462,15.8917972 22.1696134,12.9881257 19.3383548,8.72783813 C16.5070962,4.46755051 13.8346304,1.3555063 9.68950049,1.3555063 C5.055523,1.3555063 1.28556896,5.06304511 1.28556896,9.6202467 C1.28556896,14.1773708 5.055523,17.8849086 9.68950049,17.8849086 C13.106927,17.8849086 15.4513333,15.7646287 17.476893,13.1350123 L16.2839061,11.3776742 C14.4265198,13.9043787 12.4524727,15.8917982 9.68950049,15.8917982 C6.16935577,15.8917982 3.30557089,13.0784072 3.30557089,9.62024769 C3.30557089,6.16208815 6.16935577,3.3485313 9.68950049,3.3485313 C13.0695851,3.3485313 15.1796158,6.10433568 18.1249518,10.5055627 C21.0702877,14.9067898 23.634903,17.8849096 27.7801118,17.8849096 C31.2322119,17.8912816 34.338115,15.8000641 35.6147222,12.6098338 L33.3907908,12.6098338 C32.2610602,14.6385308 30.1116964,15.8958014 27.7801167,15.8917982" id="Shape"></path>
                                </g>
                                <g id="Group-10" transform="translate(102.034752, 102.389932) rotate(90.000000) translate(-102.034752, -102.389932) translate(0.034752, 0.389932)">
                                    <path d="M100.175035,-5.24945017 L104.022334,-5.24749169 C122.786496,-5.23793975 137.99547,9.97103386 138.005022,28.7351961 L138.092836,201.240891 C138.095085,205.659169 134.515187,209.242713 130.096909,209.244963 C130.094194,209.244964 130.091479,209.244964 130.088765,209.244963 L74.241446,209.216533 C69.826349,209.214286 66.247767,205.635704 66.2455195,201.220607 L66.157732,28.7678532 C66.1481732,9.99017414 81.3627408,-5.23989135 100.14042,-5.24945017 C100.151958,-5.24945604 100.163497,-5.24945604 100.175035,-5.24945017 Z" id="Rectangle-10" fill="#D3DCE6" transform="translate(102.126301, 101.998773) rotate(45.000000) translate(-102.126301, -101.998773) "></path>
                                    <g id="Oval-3">
                                        <use fill="black" fill-opacity="1" filter="url(#filter-3)" xlink:href="#path-2"></use>
                                        <use fill="#F7FAFC" fill-rule="evenodd" xlink:href="#path-2"></use>
                                        <use fill="black" fill-opacity="1" filter="url(#filter-4)" xlink:href="#path-2"></use>
                                        <use stroke="#76818C" stroke-width="1" xlink:href="#path-2"></use>
                                    </g>
                                    <path d="M63.3844757,134.45682 L49.3653571,134.45682 L49.3653571,153.466783 L68.180107,153.466783 L68.1800867,139.402816 C68.1877474,136.732443 66.0274242,134.45682 63.3844757,134.45682 Z M45.0600321,134.45682 L42.7081909,134.45682 C40.0652424,134.45682 37.8053298,136.63182 37.8053298,139.410556 L37.8053298,141.786802 L45.0600321,141.786802 L45.0600321,134.45682 Z M37.8053298,146.237424 L45.0600321,146.237424 L45.0600321,153.567406 L37.8053298,153.567406 L37.8053298,146.237424 Z M60.9330451,165.247387 L63.2848863,165.247387 C65.9278349,165.247387 68.1877474,163.072387 68.1877474,160.293651 L68.1877474,157.925146 L60.9330451,157.925146 L60.9330451,165.247387 Z M49.3653571,157.925146 L56.6200594,157.925146 L56.6200594,165.255127 L49.3653571,165.255127 L49.3653571,157.925146 Z M37.8053298,157.925146 L37.8053298,160.301391 C37.8053298,162.971764 39.9579923,165.255127 42.7081909,165.255127 L45.0600321,165.255127 L45.0600321,157.925146 L37.8053298,157.925146 Z" id="Shape" fill="#929CA6" fill-rule="nonzero" transform="translate(52.996539, 149.855974) rotate(-45.000000) translate(-52.996539, -149.855974) "></path>
                                </g>
                            </g>
                        </g>
                    </g>
                </g>
            </g>
        </g>
    </g>
</svg>