<?xml version="1.0" encoding="UTF-8"?>
<svg width="309px" height="221px" viewBox="0 0 309 221" version="1.1" xmlns="http://www.w3.org/2000/svg" xmlns:xlink="http://www.w3.org/1999/xlink">
    <!-- Generator: Sketch 52.6 (67491) - http://www.bohemiancoding.com/sketch -->
    <title>Group 9</title>
    <desc>Created with Sketch.</desc>
    <defs>
        <filter x="-4.2%" y="-6.1%" width="108.3%" height="112.2%" filterUnits="objectBoundingBox" id="filter-1">
            <feOffset dx="0" dy="0" in="SourceAlpha" result="shadowOffsetOuter1"></feOffset>
            <feGaussianBlur stdDeviation="2.5" in="shadowOffsetOuter1" result="shadowBlurOuter1"></feGaussianBlur>
            <feColorMatrix values="0 0 0 0 0.215686275   0 0 0 0 0.215686275   0 0 0 0 0.215686275  0 0 0 0.23 0" type="matrix" in="shadowBlurOuter1" result="shadowMatrixOuter1"></feColorMatrix>
            <feMerge>
                <feMergeNode in="shadowMatrixOuter1"></feMergeNode>
                <feMergeNode in="SourceGraphic"></feMergeNode>
            </feMerge>
        </filter>
        <ellipse id="path-2" cx="125.183574" cy="44.1421863" rx="14.217541" ry="14.2861045"></ellipse>
        <filter x="-22.9%" y="-22.7%" width="145.7%" height="145.5%" filterUnits="objectBoundingBox" id="filter-3">
            <feMorphology radius="0.5" operator="dilate" in="SourceAlpha" result="shadowSpreadOuter1"></feMorphology>
            <feOffset dx="0" dy="0" in="shadowSpreadOuter1" result="shadowOffsetOuter1"></feOffset>
            <feGaussianBlur stdDeviation="2" in="shadowOffsetOuter1" result="shadowBlurOuter1"></feGaussianBlur>
            <feComposite in="shadowBlurOuter1" in2="SourceAlpha" operator="out" result="shadowBlurOuter1"></feComposite>
            <feColorMatrix values="0 0 0 0 0.572   0 0 0 0 0.611   0 0 0 0 0.65  0 0 0 1 0" type="matrix" in="shadowBlurOuter1"></feColorMatrix>
        </filter>
        <filter x="-29.9%" y="-29.7%" width="159.8%" height="159.5%" filterUnits="objectBoundingBox" id="filter-4">
            <feGaussianBlur stdDeviation="4" in="SourceAlpha" result="shadowBlurInner1"></feGaussianBlur>
            <feOffset dx="0" dy="0" in="shadowBlurInner1" result="shadowOffsetInner1"></feOffset>
            <feComposite in="shadowOffsetInner1" in2="SourceAlpha" operator="arithmetic" k2="-1" k3="1" result="shadowInnerInner1"></feComposite>
            <feColorMatrix values="0 0 0 0 0.57254902   0 0 0 0 0.611764706   0 0 0 0 0.650980392  0 0 0 0.28 0" type="matrix" in="shadowInnerInner1"></feColorMatrix>
        </filter>
    </defs>
    <g id="Token-Migration" stroke="none" stroke-width="1" fill="none" fill-rule="evenodd">
        <g id="01.4-Ledger-Tutorial-Account" transform="translate(-361.000000, -1733.000000)">
            <g id="Group-9" transform="translate(361.000000, 1733.000000)">
                <polygon id="Rectangle-Copy" fill="#EDF3F7" points="218.52876 8 308.940612 44.5287596 272.411853 134.940612 182 98.4118526"></polygon>
                <circle id="Oval" fill="#EDF3F7" cx="23.5" cy="23.5" r="23.5"></circle>
                <polygon id="Rectangle" fill="#EDF3F7" transform="translate(106.437743, 168.937743) rotate(30.000000) translate(-106.437743, -168.937743) " points="106.437743 108.955152 166.420333 168.937743 106.437743 228.920333 46.455152 168.937743"></polygon>
                <g id="Group" transform="translate(130.000000, 97.500000) rotate(-90.000000) translate(-130.000000, -97.500000) translate(43.500000, -29.500000)">
                    <g id="Group-4">
                        <g id="Group-7-Copy-2">
                            <g id="Group-3" filter="url(#filter-1)" transform="translate(86.520246, 127.203031) rotate(90.000000) translate(-86.520246, -127.203031) translate(-39.979754, 41.203031)">
                                <path d="M144.666634,-1.57652933 L192.193366,-1.69085118 C195.507065,-1.69882202 198.19981,0.981000063 198.207781,4.29469898 C198.207804,4.30432066 198.207804,4.31394239 198.207781,4.32356407 L197.809208,170.02013 C197.801264,173.322562 195.12609,175.997737 191.823658,176.00568 L144.296926,176.120002 C140.983227,176.127973 138.290481,173.448151 138.28251,170.134452 C138.282487,170.12483 138.282487,170.115209 138.28251,170.105587 L138.681084,4.40902071 C138.689028,1.10658869 141.364202,-1.56858559 144.666634,-1.57652933 Z" id="Rectangle-10" fill="#001833" transform="translate(168.245146, 87.214575) rotate(-45.000000) translate(-168.245146, -87.214575) "></path>
                                <path d="M175.71059,44.4186839 L180.411809,44.4073755 C181.516375,44.4047185 182.413957,45.2979925 182.416614,46.4025588 C182.416622,46.4057661 182.416622,46.4089733 182.416614,46.4121805 L182.363755,68.3872027 C182.361107,69.4880134 181.469382,70.3797382 180.368571,70.3823861 L175.667352,70.3936946 C174.562786,70.3963515 173.665204,69.5030775 173.662547,68.3985112 C173.662539,68.395304 173.662539,68.3920967 173.662547,68.3888895 L173.715407,46.4138673 C173.718054,45.3130566 174.609779,44.4213318 175.71059,44.4186839 Z" id="Rectangle-10" fill="#001833" transform="translate(178.039581, 57.400535) rotate(-45.000000) translate(-178.039581, -57.400535) "></path>
                                <path d="M230.822755,99.7966254 L235.523974,99.7853169 C236.628541,99.7826599 237.526122,100.675934 237.528779,101.7805 C237.528787,101.783707 237.528787,101.786915 237.528779,101.790122 L237.47592,123.765144 C237.473272,124.865955 236.581547,125.75768 235.480737,125.760328 L230.779517,125.771636 C229.674951,125.774293 228.777369,124.881019 228.774712,123.776453 C228.774704,123.773245 228.774704,123.770038 228.774712,123.766831 L228.827572,101.791809 C228.830219,100.690998 229.721944,99.7992733 230.822755,99.7966254 Z" id="Rectangle-10" fill="#001833" transform="translate(233.151746, 112.778476) rotate(-45.000000) translate(-233.151746, -112.778476) "></path>
                                <path d="M146.921564,81.1645038 L162.630351,65.3799612 C163.275889,64.7313099 164.323047,64.7307748 164.969243,65.3787661 L164.970433,65.3799612 L227.619687,128.331339 C228.26476,128.979523 228.26476,130.029738 227.619687,130.677923 L211.910899,146.462465 C211.265361,147.111116 210.218204,147.111652 209.572008,146.46366 L209.570817,146.462465 L146.921564,83.5110877 C146.27649,82.8629033 146.27649,81.8126882 146.921564,81.1645038 Z" id="Rectangle-10" fill="#203040"></path>
                                <g id="Group-10" transform="translate(186.979467, 105.806344) rotate(45.000000) translate(-186.979467, -105.806344) translate(172.479467, 98.806344)" fill="#1A7AFB">
                                    <path d="M21.7371363,0.101667494 C18.9061836,0.101667494 16.965752,1.86773343 15.2887063,4.05583161 L16.2824919,5.50522467 C17.8188171,3.40693334 19.4515442,1.75600607 21.7371363,1.75600607 C24.3624739,1.75600607 26.5455734,3.65606368 26.9487112,6.13473871 L20.4314665,6.13473871 L20.4314665,7.78915305 L28.6358429,7.78915305 C28.6694782,7.51469386 28.6863868,7.23844833 28.6864751,6.96194221 C28.6864751,3.17916703 25.5690123,0.101667494 21.7371363,0.101667494" id="Shape"></path>
                                    <path d="M21.9720163,12.1912304 C19.1768786,12.1912304 17.3325649,9.78099327 14.9913318,6.24467609 C12.6500988,2.70835892 10.4401751,0.125158821 7.01247155,0.125158821 C3.18052864,0.125158821 0.0630666411,3.20265836 0.0630666411,6.98543354 C0.0630666411,10.7681444 3.18052864,13.8456431 7.01247155,13.8456431 C9.83842042,13.8456431 11.7770641,12.0856722 13.4520461,9.90291869 L12.4655377,8.44421319 C10.9296222,10.5415431 9.29723705,12.1912312 7.01247155,12.1912312 C4.10158266,12.1912312 1.73345285,9.8559328 1.73345285,6.98543435 C1.73345285,4.11493591 4.10158266,1.77949984 7.01247155,1.77949984 C9.80754151,1.77949984 11.5523746,4.06699759 13.9879409,7.72030369 C16.4235071,11.3736098 18.5442467,13.8456439 21.9720155,13.8456439 C24.8266368,13.8509331 27.3949797,12.1150859 28.4506357,9.46698621 L26.6116154,9.46698621 C25.6774151,11.1509373 23.9000566,12.1945541 21.9720196,12.1912312" id="Shape"></path>
                                </g>
                                <g id="Group-10" transform="translate(0.087505, 0.378468)">
                                    <path d="M84.2107783,-4.17965125 L84.2107783,-4.17965125 C100.671772,-4.14005561 114.006195,9.19436742 114.045791,25.6553607 L114.382299,165.550056 C114.392927,169.968321 110.819831,173.558648 106.401566,173.569276 C106.388737,173.569307 106.375908,173.569307 106.363079,173.569276 L62.8363813,173.464576 C58.4331386,173.453985 54.8662395,169.887086 54.8556477,165.483843 L54.5189541,25.5121735 C54.4796035,9.15318208 67.7092863,-4.14030066 84.0682778,-4.17965125 C84.1157779,-4.17976551 84.1632782,-4.17976551 84.2107783,-4.17965125 Z" id="Rectangle-10" fill="#D3DCE6" transform="translate(84.450595, 84.694781) rotate(45.000000) translate(-84.450595, -84.694781) "></path>
                                    <g id="Oval-3">
                                        <use fill="black" fill-opacity="1" filter="url(#filter-3)" xlink:href="#path-2"></use>
                                        <use fill="#F7FAFC" fill-rule="evenodd" xlink:href="#path-2"></use>
                                        <use fill="black" fill-opacity="1" filter="url(#filter-4)" xlink:href="#path-2"></use>
                                        <use stroke="#76818C" stroke-width="1" xlink:href="#path-2"></use>
                                    </g>
                                    <path d="M52.4140856,111.607949 L40.821353,111.607949 L40.821353,127.38746 L56.3797039,127.38746 L56.3796871,115.713449 C56.3860219,113.496864 54.5996008,111.607949 52.4140856,111.607949 Z M37.2611804,111.607949 L35.3163887,111.607949 C33.1308735,111.607949 31.2620996,113.413341 31.2620996,115.719873 L31.2620996,117.692312 L37.2611804,117.692312 L37.2611804,111.607949 Z M31.2620996,121.38662 L37.2611804,121.38662 L37.2611804,127.470984 L31.2620996,127.470984 L31.2620996,121.38662 Z M50.3869411,137.166132 L52.3317329,137.166132 C54.5172481,137.166132 56.3860219,135.36074 56.3860219,133.054207 L56.3860219,131.088193 L50.3869411,131.088193 L50.3869411,137.166132 Z M40.821353,131.088193 L46.8204338,131.088193 L46.8204338,137.172557 L40.821353,137.172557 L40.821353,131.088193 Z M31.2620996,131.088193 L31.2620996,133.060632 C31.2620996,135.277216 33.0421859,137.172557 35.3163887,137.172557 L37.2611804,137.172557 L37.2611804,131.088193 L31.2620996,131.088193 Z" id="Shape" fill="#929CA6" fill-rule="nonzero" transform="translate(43.824061, 124.390253) rotate(-45.000000) translate(-43.824061, -124.390253) "></path>
                                </g>
                            </g>
                        </g>
                    </g>
                </g>
            </g>
        </g>
    </g>
</svg>