<svg width="381" height="488" xmlns="http://www.w3.org/2000/svg" xmlns:xlink="http://www.w3.org/1999/xlink"><defs><path d="M27 0h168.773c14.912 0 27 12.088 27 27v398.7c0 14.911-12.088 27-27 27H27c-14.912 0-27-12.089-27-27V27C0 12.088 12.088 0 27 0z" id="b"/><filter x="-10.8%" y="-5.3%" width="121.5%" height="110.6%" filterUnits="objectBoundingBox" id="a"><feOffset in="SourceAlpha" result="shadowOffsetOuter1"/><feGaussianBlur stdDeviation="8" in="shadowOffsetOuter1" result="shadowBlurOuter1"/><feColorMatrix values="0 0 0 0 0.105882353 0 0 0 0 0.266666667 0 0 0 0 0.474509804 0 0 0 0.2 0" in="shadowBlurOuter1"/></filter><linearGradient x1="0%" y1="49.995%" x2="100.01%" y2="49.995%" id="c"><stop stop-color="#00E8CC" offset="0%"/><stop stop-color="#00E8CC" offset="95%"/></linearGradient><linearGradient x1="21208%" y1="6303%" x2="26123%" y2="6303%" id="d"><stop stop-color="#00E8CC" offset="0%"/><stop stop-color="#00E8CC" offset="95%"/></linearGradient><linearGradient x1="22730%" y1="45931%" x2="26123%" y2="45931%" id="e"><stop stop-color="#00E8CC" offset="0%"/><stop stop-color="#00E8CC" offset="95%"/></linearGradient></defs><g transform="translate(0 16)" fill="none" fill-rule="evenodd"><circle fill="#EDF3F7" cx="344.5" cy="31.5" r="23.5"/><path fill="#EDF3F7" d="M296.268 302.32l84.482 84.483-84.482 84.482-84.483-84.482zM37.104 109.992l91.837 37.104-37.105 91.837L0 201.828z"/><g transform="translate(83)"><use fill="#000" filter="url(#a)" xlink:href="#b"/><use fill="#FFF" xlink:href="#b"/><path d="M17 53h188.814a3 3 0 0 1 3 3v340.288a3 3 0 0 1-3 3H17a3 3 0 0 1-3-3V56a3 3 0 0 1 3-3z" fill="#6948A1"/><g fill-rule="nonzero"><path d="M108.995 206.87c0-.753-.535-1.06-1.188-.68 0 0-2.518 1.464-4.422 2.363-2.287 1.083-5.885 2.036-8.162 2.476-1.48.286-1.692 1.228-1.764 2.104a90.404 90.404 0 0 0-.225 4.278c-.107 3.46-.417 7.074-.043 10.52.225 2.07.796 4.403 1.769 6.262a26.722 26.722 0 0 0 5.52 7.245c2.261 2.09 7.268 4.416 7.268 4.416.686.318 1.248-.037 1.248-.791V206.87z" fill="#311B58"/><path d="M103.347 210.645c-3.28 1.287-7.996 2.366-7.996 2.366-.136 1.733-.273 3.474-.326 5.214-.096 3.084-.372 6.306-.039 9.377.201 1.845.708 3.925 1.574 5.58 1.263 2.412 2.91 4.827 4.922 6.685 2.01 1.857 4.552 3.072 7.022 4.218l.489.225v-36.333a49.103 49.103 0 0 1-5.646 2.668z" fill="#00E8CC"/><path d="M113.008 245.06c0 .754.56 1.11 1.246.789 0 0 4.985-2.324 7.246-4.414a26.721 26.721 0 0 0 5.521-7.245c.973-1.857 1.544-4.19 1.769-6.262.374-3.444.064-7.06-.044-10.52a89.42 89.42 0 0 0-.224-4.278c-.072-.876-.285-1.819-1.764-2.104-2.276-.44-5.875-1.394-8.162-2.476-1.889-.894-4.399-2.348-4.399-2.348-.654-.38-1.19-.074-1.19.68v38.179z" fill="#311B58"/><path d="M113.48 244.085c2.468-1.146 5.006-2.356 7.021-4.218 2.015-1.862 3.659-4.273 4.922-6.684.865-1.656 1.376-3.736 1.573-5.58.334-3.072.057-6.294-.039-9.378-.054-1.74-.19-3.48-.326-5.214 0 0-4.716-1.08-7.995-2.366a49.065 49.065 0 0 1-5.63-2.661V244.3l.474-.216z" fill="#50239F"/><path fill="url(#c)" d="M12.886 14.236h8.11v8.616h-8.11z" transform="translate(93 206)"/><g><path d="M116.864 217.134h-15.53c-1.193-.023-2.147-1.016-2.147-2.232 0-1.216.954-2.209 2.147-2.231h15.53c1.193.022 2.148 1.015 2.148 2.231s-.955 2.209-2.148 2.232zM116.143 231.481h-14.81c-1.286 0-2.329-1.063-2.329-2.376 0-1.312 1.043-2.375 2.33-2.375h14.81c1.286 0 2.329 1.063 2.329 2.375 0 1.313-1.043 2.376-2.33 2.376z" fill="#00E8CC"/><path d="M116.864 235.948h-9.926c-1.193-.023-2.148-1.016-2.148-2.232 0-1.216.955-2.209 2.148-2.231h9.926c1.193.022 2.148 1.015 2.148 2.231s-.955 2.209-2.148 2.232z" fill="#50239F"/><path d="M10.231 2.171V.003l-1.178.07v3.87h3.8v-.269h-1.148c-.814 0-1.474-.673-1.474-1.503z" fill="url(#d)" transform="translate(99 209)"/><path d="M10.231 33.888v.267-1.991l2.623-.049v.27h-1.149c-.39 0-.766.158-1.042.44a1.518 1.518 0 0 0-.432 1.063z" fill="url(#e)" transform="translate(99 209)"/><path d="M114.594 223.727h-7.56c-1.77-.028-3.188-1.498-3.188-3.302s1.419-3.274 3.187-3.302h7.56c1.77.028 3.189 1.498 3.189 3.302s-1.42 3.274-3.188 3.302z" fill="#50239F"/><path d="M114.273 241.38h-6.65c-1.474 0-2.668-1.218-2.668-2.72 0-1.504 1.194-2.722 2.668-2.722h6.65c1.474 0 2.668 1.218 2.668 2.721 0 1.503-1.194 2.721-2.668 2.721z" fill="#00E8CC"/><path d="M120.957 226.73h-9.927c-.909-.02-1.635-.777-1.635-1.704 0-.927.726-1.684 1.635-1.704h9.927a1.664 1.664 0 0 1 1.477.84 1.734 1.734 0 0 1 0 1.726 1.664 1.664 0 0 1-1.477.842z" fill="#50239F"/></g></g><circle stroke="#D3DCE6" stroke-width="2" fill="#FFF" cx="111" cy="425" r="16"/></g></g></svg>