<svg width="309" height="221" xmlns="http://www.w3.org/2000/svg" xmlns:xlink="http://www.w3.org/1999/xlink"><defs><filter x="-4.2%" y="-6.1%" width="108.3%" height="112.2%" filterUnits="objectBoundingBox" id="a"><feOffset in="SourceAlpha" result="shadowOffsetOuter1"/><feGaussianBlur stdDeviation="2.5" in="shadowOffsetOuter1" result="shadowBlurOuter1"/><feColorMatrix values="0 0 0 0 0.215686275 0 0 0 0 0.215686275 0 0 0 0 0.215686275 0 0 0 0.23 0" in="shadowBlurOuter1" result="shadowMatrixOuter1"/><feMerge><feMergeNode in="shadowMatrixOuter1"/><feMergeNode in="SourceGraphic"/></feMerge></filter><ellipse id="c" cx="125.184" cy="44.142" rx="14.218" ry="14.286"/><filter x="-22.9%" y="-22.7%" width="145.7%" height="145.5%" filterUnits="objectBoundingBox" id="b"><feMorphology radius=".5" operator="dilate" in="SourceAlpha" result="shadowSpreadOuter1"/><feOffset in="shadowSpreadOuter1" result="shadowOffsetOuter1"/><feGaussianBlur stdDeviation="2" in="shadowOffsetOuter1" result="shadowBlurOuter1"/><feComposite in="shadowBlurOuter1" in2="SourceAlpha" operator="out" result="shadowBlurOuter1"/><feColorMatrix values="0 0 0 0 0.572 0 0 0 0 0.611 0 0 0 0 0.65 0 0 0 1 0" in="shadowBlurOuter1"/></filter><filter x="-29.9%" y="-29.7%" width="159.8%" height="159.5%" filterUnits="objectBoundingBox" id="d"><feGaussianBlur stdDeviation="4" in="SourceAlpha" result="shadowBlurInner1"/><feOffset in="shadowBlurInner1" result="shadowOffsetInner1"/><feComposite in="shadowOffsetInner1" in2="SourceAlpha" operator="arithmetic" k2="-1" k3="1" result="shadowInnerInner1"/><feColorMatrix values="0 0 0 0 0.57254902 0 0 0 0 0.611764706 0 0 0 0 0.650980392 0 0 0 0.28 0" in="shadowInnerInner1"/></filter></defs><g fill="none" fill-rule="evenodd"><path fill="#EDF3F7" d="M218.529 8l90.412 36.529-36.53 90.412L182 98.41z"/><circle fill="#EDF3F7" cx="23.5" cy="23.5" r="23.5"/><path fill="#EDF3F7" d="M136.429 116.991l21.955 81.938-81.938 21.955-21.955-81.938z"/><g filter="url(#a)" transform="translate(3.703 11.48)"><path d="M88.788 41.102l33.525-33.687a6 6 0 0 1 8.506 0l116.883 117.447a6 6 0 0 1 0 8.465l-33.525 33.687a6 6 0 0 1-8.506 0L88.788 49.567a6 6 0 0 1 0-8.465z" fill="#001833"/><path d="M167.213 49.868l3.316-3.332a2 2 0 0 1 2.836 0l15.501 15.576a2 2 0 0 1 0 2.821l-3.316 3.333a2 2 0 0 1-2.836 0l-15.5-15.577a2 2 0 0 1 0-2.821zM222.325 105.246l3.317-3.332a2 2 0 0 1 2.835 0l15.501 15.576a2 2 0 0 1 0 2.821l-3.316 3.332a2 2 0 0 1-2.835 0l-15.502-15.576a2 2 0 0 1 0-2.821z" fill="#001833"/><path d="M146.922 81.165L162.63 65.38a1.65 1.65 0 0 1 2.34-.001v.001l62.65 62.951a1.665 1.665 0 0 1 0 2.347l-15.71 15.784a1.65 1.65 0 0 1-2.338.002l-.001-.002-62.65-62.95a1.665 1.665 0 0 1 0-2.347z" fill="#203040"/><g fill="#1A7AFB"><path d="M196.975 106.046c-2.002-2.002-4.623-2.125-7.356-1.764l-.322 1.728c2.57-.398 4.892-.41 6.508 1.206 1.856 1.856 2.056 4.743.589 6.781l-4.609-4.608-1.17 1.17 5.802 5.8c.218-.17.425-.353.62-.548 2.676-2.675 2.647-7.056-.062-9.765"/><path d="M188.592 114.76c-1.976-1.976-1.576-4.984-.731-9.14.845-4.156 1.109-7.546-1.315-9.97-2.71-2.709-7.09-2.737-9.765-.062-2.674 2.674-2.646 7.055.063 9.764 1.999 1.999 4.614 2.125 7.342 1.766l.334-1.729c-2.57.397-4.89.41-6.506-1.206-2.058-2.059-2.081-5.385-.052-7.414 2.03-2.03 5.356-2.007 7.414.051 1.977 1.977 1.593 4.828.732 9.134-.861 4.305-1.11 7.553 1.314 9.976a6.959 6.959 0 0 0 7.678 1.485l-1.3-1.3a5.295 5.295 0 0 1-5.208-1.354"/></g><path d="M147.212 22.06c11.612 11.668 11.612 30.525 0 42.193L48.53 163.411a8 8 0 0 1-11.341 0L6.485 132.56a8 8 0 0 1 0-11.286l98.737-99.213c11.54-11.595 30.294-11.64 41.89-.1l.1.1z" fill="#D3DCE6"/><g transform="translate(.088 .378)"><use fill="#000" filter="url(#b)" xlink:href="#c"/><use fill="#F7FAFC" xlink:href="#c"/><use fill="#000" filter="url(#d)" xlink:href="#c"/><use stroke="#76818C" xlink:href="#c"/></g><path d="M40.947 109.656l-8.197 8.198 11.158 11.157 11.001-11.001-8.255-8.255c-1.563-1.572-4.161-1.644-5.707-.099zm-10.715 10.715l-1.375 1.375c-1.545 1.545-1.59 4.144.041 5.774l1.395 1.395 4.242-4.242-4.303-4.302zm2.673 11.156l4.242-4.242 4.302 4.303-4.242 4.242-4.302-4.303zm24.681-2.365l1.375-1.375c1.546-1.546 1.59-4.144-.04-5.775l-1.39-1.39-4.243 4.242 4.298 4.298zm-11.062 2.466l4.242-4.242 4.303 4.302-4.242 4.242-4.303-4.302zm-6.759 6.76l1.395 1.394c1.567 1.568 4.166 1.65 5.774.041l1.375-1.375-4.302-4.302-4.242 4.242z" fill="#929CA6" fill-rule="nonzero"/></g></g></svg>