<svg width="375" height="295" xmlns="http://www.w3.org/2000/svg" xmlns:xlink="http://www.w3.org/1999/xlink"><defs><filter x="-6.7%" y="-6.7%" width="113.4%" height="113.4%" filterUnits="objectBoundingBox" id="a"><feOffset in="SourceAlpha" result="shadowOffsetOuter1"/><feGaussianBlur stdDeviation="2.5" in="shadowOffsetOuter1" result="shadowBlurOuter1"/><feColorMatrix values="0 0 0 0 0.215686275 0 0 0 0 0.215686275 0 0 0 0 0.215686275 0 0 0 0.23 0" in="shadowBlurOuter1" result="shadowMatrixOuter1"/><feMerge><feMergeNode in="shadowMatrixOuter1"/><feMergeNode in="SourceGraphic"/></feMerge></filter><ellipse id="c" cx="75.531" cy="26.597" rx="8.578" ry="8.608"/><filter x="-37.9%" y="-37.8%" width="175.8%" height="175.5%" filterUnits="objectBoundingBox" id="b"><feMorphology radius=".5" operator="dilate" in="SourceAlpha" result="shadowSpreadOuter1"/><feOffset in="shadowSpreadOuter1" result="shadowOffsetOuter1"/><feGaussianBlur stdDeviation="2" in="shadowOffsetOuter1" result="shadowBlurOuter1"/><feComposite in="shadowBlurOuter1" in2="SourceAlpha" operator="out" result="shadowBlurOuter1"/><feColorMatrix values="0 0 0 0 0.572 0 0 0 0 0.611 0 0 0 0 0.65 0 0 0 1 0" in="shadowBlurOuter1"/></filter><filter x="-49.5%" y="-49.4%" width="199.1%" height="198.7%" filterUnits="objectBoundingBox" id="d"><feGaussianBlur stdDeviation="4" in="SourceAlpha" result="shadowBlurInner1"/><feOffset in="shadowBlurInner1" result="shadowOffsetInner1"/><feComposite in="shadowOffsetInner1" in2="SourceAlpha" operator="arithmetic" k2="-1" k3="1" result="shadowInnerInner1"/><feColorMatrix values="0 0 0 0 0.57254902 0 0 0 0 0.611764706 0 0 0 0 0.650980392 0 0 0 0.28 0" in="shadowInnerInner1"/></filter><path d="M10.682.69C5.163.69.69 5.17.69 10.691v151.662c0 5.525 4.478 10.003 9.992 10.003h233.422c5.519 0 9.993-4.481 9.993-10.003V10.692c0-5.524-4.48-10.003-9.993-10.003H10.682z" id="e"/><path id="f" d="M9 10v147.882h235.824V10z"/><ellipse id="h" cx="1.034" cy="1.034" rx="1.034" ry="1.034"/><filter x="-290%" y="-290.1%" width="680.1%" height="680.2%" filterUnits="objectBoundingBox" id="i"><feGaussianBlur stdDeviation="2" in="SourceAlpha" result="shadowBlurInner1"/><feOffset dx="8" in="shadowBlurInner1" result="shadowOffsetInner1"/><feComposite in="shadowOffsetInner1" in2="SourceAlpha" operator="arithmetic" k2="-1" k3="1" result="shadowInnerInner1"/><feColorMatrix values="0 0 0 0 0 0 0 0 0 0 0 0 0 0 0 0 0 0 0.5 0" in="shadowInnerInner1"/></filter><path d="M.059 5.976h309.893s-9.343 5.22-12.912 5.22c-3.568 0-283.339.81-283.339.81s-8.035-1.13-10.524-3.015C.69 7.106.06 5.976.06 5.976z" id="l"/><filter x="-7.7%" y="-398%" width="115.5%" height="895.9%" filterUnits="objectBoundingBox" id="k"><feOffset in="SourceAlpha" result="shadowOffsetOuter1"/><feGaussianBlur stdDeviation="8" in="shadowOffsetOuter1" result="shadowBlurOuter1"/><feColorMatrix values="0 0 0 0 0.105882353 0 0 0 0 0.266666667 0 0 0 0 0.474509804 0 0 0 0.15 0" in="shadowBlurOuter1"/></filter><rect id="m" x="0" y="0" width="310" height="6.327" rx="1"/><filter x="-7.7%" y="-379.3%" width="115.5%" height="858.6%" filterUnits="objectBoundingBox" id="n"><feOffset in="SourceAlpha" result="shadowOffsetOuter1"/><feGaussianBlur stdDeviation="8" in="shadowOffsetOuter1" result="shadowBlurOuter1"/><feColorMatrix values="0 0 0 0 0.105882353 0 0 0 0 0.266666667 0 0 0 0 0.474509804 0 0 0 0.15 0" in="shadowBlurOuter1"/></filter><path d="M136.978-2.812a3.339 3.339 0 0 0-3.334 3.34 3.338 3.338 0 0 0 3.334 3.339h36.044a3.339 3.339 0 0 0 3.334-3.34 3.338 3.338 0 0 0-3.334-3.34h-36.044z" id="q"/><filter x="-56.2%" y="-359.3%" width="212.4%" height="818.7%" filterUnits="objectBoundingBox" id="p"><feOffset in="SourceAlpha" result="shadowOffsetOuter1"/><feGaussianBlur stdDeviation="8" in="shadowOffsetOuter1" result="shadowBlurOuter1"/><feColorMatrix values="0 0 0 0 0.105882353 0 0 0 0 0.266666667 0 0 0 0 0.474509804 0 0 0 0.15 0" in="shadowBlurOuter1"/></filter></defs><g fill="none" fill-rule="evenodd"><path fill="#EDF3F7" d="M89.172 52L149 76.172 124.828 136 65 111.828zM296.303 134L203 171.697 240.697 265 334 227.303z"/><path d="M336.569 137.01v61.723c0 19.903-4.868 23.055-16.745 23.29-16.623.33-27.745 0-35.436 0-14.104 0-14.104 24.357.407 24.357h76.079c15.393 0 14.8 25.398 0 25.398H307.13" stroke="#203040" stroke-width="5" stroke-linecap="square" stroke-linejoin="round"/><path d="M342.566 186.425v9.839a3 3 0 0 1-3 3h-6.335a3 3 0 0 1-3-3v-9.84a3 3 0 0 1 3-3h6.335a3 3 0 0 1 3 3z" fill="#062345"/><g filter="url(#a)" transform="rotate(45 185.14 398.985)"><path d="M57.836 78.008l19.688-19.755a4 4 0 0 1 5.666 0l69.983 70.224a4 4 0 0 1 0 5.647l-19.688 19.756a4 4 0 0 1-5.666 0L57.836 83.655a4 4 0 0 1 0-5.647z" fill="#001833"/><path d="M105.442 83.001l.88-.882a2 2 0 0 1 2.833 0l8.232 8.26a2 2 0 0 1 0 2.823l-.88.883a2 2 0 0 1-2.834 0l-8.231-8.26a2 2 0 0 1 0-2.824zM138.694 116.369l.88-.883a2 2 0 0 1 2.833 0l8.232 8.26a2 2 0 0 1 0 2.824l-.88.883a2 2 0 0 1-2.833 0l-8.232-8.26a2 2 0 0 1 0-2.824z" fill="#001833"/><path d="M92.417 100.77l8.065-8.092a2 2 0 0 1 2.833 0l36.387 36.512a2 2 0 0 1 0 2.824l-8.065 8.093a2 2 0 0 1-2.833 0l-36.387-36.513a2 2 0 0 1 0-2.823z" fill="#203040"/><path d="M89.36 89.589c-7.028 7.003-18.395 7.003-25.423 0L3.601 29.459a4 4 0 0 1 0-5.666L23.356 4.105a4 4 0 0 1 5.648 0L89.36 64.254c6.996 6.972 7.015 18.295.043 25.291l-.043.044z" fill="#D3DCE6"/><g transform="rotate(90 50.802 51.621)"><use fill="#000" filter="url(#b)" xlink:href="#c"/><use fill="#F7FAFC" xlink:href="#c"/><use fill="#000" filter="url(#d)" xlink:href="#c"/><use stroke="#76818C" xlink:href="#c"/></g><path d="M36.584 25.48l-4.946-4.946-6.723 6.723 6.638 6.638 4.974-4.974c.947-.942.99-2.508.057-3.44zm-6.465-6.465l-.83-.83c-.932-.932-2.498-.96-3.481.023l-.84.84 2.559 2.56 2.592-2.593zm-6.726 1.607l2.56 2.56-2.592 2.592-2.56-2.56 2.592-2.592zm1.437 14.883l.83.83c.932.932 2.499.96 3.481-.023l.838-.838-2.56-2.559-2.59 2.59zm-1.492-6.671l2.56 2.56-2.592 2.592-2.56-2.56 2.592-2.592zm-4.078-4.078l-.84.84c-.945.944-.993 2.511-.023 3.482l.83.83 2.592-2.593-2.559-2.56z" fill="#929CA6" fill-rule="nonzero"/></g><g><g transform="translate(43.377 101.65)"><rect fill="#C1C1C1" width="254.442" height="172.702" rx="10"/><use fill="#1F3040" xlink:href="#e"/><mask id="g" fill="#fff"><use xlink:href="#f"/></mask><use fill="#F7FAFC" xlink:href="#f"/><g mask="url(#g)"><g transform="translate(126.186 4.481)"><mask id="j" fill="#fff"><use xlink:href="#h"/></mask><use fill="#3A4044" xlink:href="#h"/><use fill="#000" filter="url(#i)" xlink:href="#h"/><ellipse fill="#FFF" opacity=".822" style="mix-blend-mode:overlay" mask="url(#j)" cx="-.69" cy="2.413" rx="2.758" ry="1.379"/></g></g></g><g transform="translate(16 267.088)"><use fill="#000" filter="url(#k)" xlink:href="#l"/><use fill="#203040" xlink:href="#l"/><mask id="o" fill="#fff"><use xlink:href="#m"/></mask><use fill="#000" filter="url(#n)" xlink:href="#m"/><use fill="#203040" xlink:href="#m"/><g mask="url(#o)"><use fill="#000" filter="url(#p)" xlink:href="#q"/><use fill="#001833" xlink:href="#q"/></g></g></g></g></svg>