<svg width="42" height="47" xmlns="http://www.w3.org/2000/svg"><defs><linearGradient x1="0%" y1="49.995%" x2="100.01%" y2="49.995%" id="a"><stop stop-color="#00E8CC" offset="0%"/><stop stop-color="#00E8CC" offset="95%"/></linearGradient><linearGradient x1="21208%" y1="6303%" x2="26123%" y2="6303%" id="b"><stop stop-color="#00E8CC" offset="0%"/><stop stop-color="#00E8CC" offset="95%"/></linearGradient><linearGradient x1="22730%" y1="45931%" x2="26123%" y2="45931%" id="c"><stop stop-color="#00E8CC" offset="0%"/><stop stop-color="#00E8CC" offset="95%"/></linearGradient></defs><g fill="none"><path d="M18.661 1.015c0-.879-.624-1.236-1.387-.793 0 0-2.937 1.708-5.158 2.757C9.448 4.242 5.25 5.353 2.594 5.868.867 6.2.62 7.3.535 8.322a105.471 105.471 0 0 0-.261 4.99C.148 17.35-.214 21.566.223 25.586c.263 2.415.928 5.137 2.063 7.306a31.176 31.176 0 0 0 6.442 8.452c2.637 2.438 8.478 5.152 8.478 5.152.8.372 1.456-.043 1.456-.922V1.014z" fill="#311B58"/><path d="M12.071 5.42c-3.825 1.5-9.328 2.759-9.328 2.759-.16 2.022-.318 4.054-.38 6.083-.112 3.598-.435 7.357-.045 10.94.234 2.153.826 4.58 1.835 6.511 1.473 2.813 3.396 5.631 5.742 7.798 2.346 2.168 5.312 3.585 8.193 4.921l.57.263V2.305a57.287 57.287 0 0 1-6.587 3.114z" fill="#00E8CC"/><path d="M23.342 45.57c0 .88.655 1.294 1.455.92 0 0 5.815-2.711 8.453-5.15a31.175 31.175 0 0 0 6.441-8.451c1.136-2.167 1.801-4.889 2.064-7.306.437-4.019.075-8.238-.05-12.274a104.323 104.323 0 0 0-.262-4.99c-.085-1.023-.333-2.123-2.06-2.455-2.654-.513-6.853-1.627-9.522-2.889C27.66 1.932 24.73.235 24.73.235c-.763-.442-1.388-.085-1.388.793v44.543z" fill="#311B58"/><path d="M23.893 44.432c2.88-1.336 5.84-2.748 8.191-4.92 2.351-2.173 4.27-4.986 5.742-7.799 1.01-1.931 1.606-4.358 1.836-6.51.39-3.584.067-7.343-.045-10.94-.063-2.03-.222-4.061-.38-6.084 0 0-5.502-1.258-9.328-2.76a57.243 57.243 0 0 1-6.57-3.105v42.37l.554-.252z" fill="#50239F"/><path fill="url(#a)" d="M15.034 16.609h9.462v10.052h-9.462z"/><path d="M27.841 12.99H9.723c-1.391-.027-2.505-1.185-2.505-2.604 0-1.42 1.114-2.577 2.505-2.604H27.84c1.392.027 2.506 1.185 2.506 2.604s-1.114 2.577-2.506 2.603zM27 29.728H9.724c-1.501 0-2.718-1.24-2.718-2.772 0-1.53 1.217-2.772 2.718-2.772H27c1.5 0 2.718 1.242 2.718 2.772 0 1.531-1.217 2.772-2.718 2.772z" fill="#00E8CC"/><path d="M27.841 34.939h-11.58c-1.392-.027-2.506-1.185-2.506-2.604s1.114-2.576 2.505-2.603h11.581c1.392.027 2.506 1.184 2.506 2.603 0 1.42-1.114 2.577-2.506 2.604z" fill="#50239F"/><path d="M11.936 2.533V.003l-1.375.082V4.6h4.435v-.314h-1.34c-.95 0-1.72-.785-1.72-1.754z" fill="url(#b)" transform="translate(7 3.5)"/><path d="M11.936 39.536v.311-2.322l3.06-.057v.314h-1.34c-.456 0-.893.185-1.216.514a1.772 1.772 0 0 0-.504 1.24z" fill="url(#c)" transform="translate(7 3.5)"/><path d="M25.193 20.682h-8.82c-2.064-.033-3.72-1.748-3.72-3.853 0-2.104 1.656-3.82 3.72-3.852h8.82c2.063.033 3.719 1.748 3.719 3.852 0 2.105-1.656 3.82-3.72 3.853z" fill="#50239F"/><path d="M24.819 41.277h-7.76c-1.718 0-3.112-1.421-3.112-3.175 0-1.753 1.394-3.174 3.113-3.174h7.759c1.72 0 3.113 1.421 3.113 3.174 0 1.754-1.394 3.175-3.113 3.175z" fill="#00E8CC"/><path d="M32.616 24.184h-11.58c-1.061-.023-1.909-.906-1.909-1.987 0-1.082.848-1.965 1.908-1.988h11.581a1.942 1.942 0 0 1 1.723.981 2.022 2.022 0 0 1 0 2.013 1.942 1.942 0 0 1-1.723.981z" fill="#50239F"/></g></svg>